<svg xmlns="http://www.w3.org/2000/svg" xmlns:xlink="http://www.w3.org/1999/xlink" id="Calque_1" x="0px" y="0px" viewBox="0 0 172.9 97.1" style="enable-background:new 0 0 172.9 97.1;" xml:space="preserve"><metadata>                                                                                                                                                                                                                                                                                                                                                                                                                                                                                                                                                                                                                                                                                                                                                                                                                                                                                                                                                                                                                                                                                                                                                                                                                                                                                                                                                                                                                                                                                                                                                                                                                                                                                                                                                                                                                                                                                                                                                                                                                                                                                                           </metadata><style type="text/css">	.st0{fill:#004362;}	.st1{fill:#D2C18B;}	.st2{fill:#FFFFFF;}</style><polygon class="st0" points="0,97.1 172.9,58.3 172.9,0 0,0 "></polygon><g>	<g>		<path class="st1" d="M58.8,30.5c0.5-0.1,1.1-0.2,1.6-0.2c0.5-0.1,1-0.1,1.6-0.2c0.1,0,0.3-0.1,0.4-0.1c0.1,0,0.2,0.1,0.3,0.2l0,0   c0,0,0,0.1,0,0.2c-0.4,0.9-0.6,1.9-0.8,2.8c-0.1,0.5-0.2,1.1-0.4,1.6c-0.1,0.2,0,0.5,0,0.9c0,0.6,0.1,1.3-0.2,1.3   c-0.2,0-0.3-0.2-0.4-0.4c0-0.2,0-0.4-0.1-0.6c0-0.2,0-0.4-0.1-0.6c-0.1-0.2-0.3-0.4-0.5-0.3c-1,0.2-1.4,1-1.9,1.8   c-0.4,0.8-0.9,1.6-1.9,1.8l-0.4,0.1c-0.1,0-0.2-0.1-0.2-0.2c0-0.1,0.3-0.3,0.6-0.6c0.8-0.6,1.9-1.4,1.6-2.3   c-0.1-0.2-0.2-0.4-0.4-0.5c-0.2-0.1-0.3-0.2-0.4-0.4c0-0.1,0.1-0.3,0.2-0.3c0.1,0,0.2,0,0.4,0.1c0.1,0.1,0.3,0.1,0.5,0.1   c0.7-0.2,2-2.7,1.9-3.3c-0.1-0.4-0.8-0.3-1.2-0.2l-0.2,0c-1.3,0.3-1.6,1.4-1.8,2.1c-0.1,0.3-0.1,0.5-0.2,0.5   c-0.1,0-0.2-0.1-0.2-0.1c0,0-0.1-0.2-0.1-0.3c-0.2-1.1,0.6-2.1,1.6-2.6C58.3,30.7,58.7,30.5,58.8,30.5z M59.9,34.1   c0,0.2,0.2,0.2,0.4,0.2c0.6-0.1,1.1-1.7,1-2.2c0-0.1-0.1-0.1-0.2-0.1C60.7,32,59.8,33.7,59.9,34.1z"></path>		<path class="st1" d="M61.9,33.1c0-0.2,0.2-0.4,0.4-0.5c0.4-0.3,0.5-0.3,0.6-0.8c0.1-0.3,0.2-0.8,0.5-1l0,0c0.2,0,0.2,0.2,0.3,0.3   c0,0.1,0,0.3,0,0.4c0,0.2,0,0.3,0,0.5c0,0.2,0.2,0.3,0.3,0.4c0.1,0.1,0.2,0.1,0.3,0.3c0,0.1-0.1,0.2-0.3,0.3   c-0.4,0.3-1,0.8-0.7,2.2c0.1,0.3,0.2,0.6,0.5,0.5c0.5-0.1,0.6-0.6,0.7-1.1c0.1-0.4,0.1-0.8,0.5-0.9c0.2,0,0.3,0.1,0.3,0.3   c0.2,0.9-0.5,2.1-1.4,2.3c-0.7,0.2-1.1-0.4-1.2-1c0-0.3,0-0.5,0-0.8c0-0.3,0-0.5,0-0.8c0-0.2-0.2-0.3-0.3-0.4   C62.1,33.3,61.9,33.2,61.9,33.1z"></path>		<path class="st1" d="M65.2,34.8c0.1,0.4,0.6,0.4,0.9,0.3c0.7-0.2,1-0.7,1.3-1.2c0.2-0.3,0.3-0.7,0.6-0.7c0.2,0,0.2,0,0.3,0.2   c0.2,1.1-1.1,2.2-2,2.4c-0.1,0-0.4,0.1-0.5,0.1c-0.6-0.1-1.1-0.5-1.3-1.1c-0.2-1,0.2-2.8,1.3-3c0.6-0.1,1.1,0.5,1.2,1   c0.2,1-0.6,1.5-1.4,1.7c-0.1,0-0.2,0-0.2,0C65.2,34.6,65.2,34.7,65.2,34.8z M65.8,33.7c0.4-0.1,0.6-0.4,0.5-0.8   c0-0.1-0.2-0.5-0.4-0.4l0,0c-0.3,0.1-0.6,0.7-0.6,1C65.4,33.7,65.6,33.7,65.8,33.7z"></path>		<path class="st1" d="M69.3,34.4c0.5-0.1,0.7-0.6,0.9-1.1c0.1-0.4,0.2-0.7,0.5-0.8c0.2,0,0.3,0.1,0.3,0.2c0.2,0.8-0.8,2.1-1.5,2.3   c-1,0.2-1.5-0.8-1.7-1.7c-0.2-1.3,0.1-4.2,1.6-4.5c0.5-0.1,0.8,0.3,0.9,0.7c0.3,1.3-0.5,2.4-1.1,3.2c-0.4,0.5-0.6,0.8-0.6,1.1   C68.7,34.2,69,34.5,69.3,34.4z M68.3,32c0,0.2,0.2,0.3,0.4,0.2c0.8-0.2,1.1-1.7,1-2.4l0,0c-0.1-0.2-0.1-0.3-0.3-0.2   c0,0-0.1,0-0.2,0C68.8,30.2,68.2,31.3,68.3,32z"></path>		<path class="st1" d="M71,33.2c0,0.1,0.1,0.4,0.1,0.5c0.1,0.2,0.2,0.2,0.4,0.2c0.5-0.1,0.6-0.6,0.6-1.1c0.1-0.4,0.1-0.7,0.4-0.8   c0.2,0,0.3,0.1,0.3,0.3c0.2,0.8-0.4,2.1-1.2,2.3c-0.7,0.2-1.1-0.5-1.2-1.1c-0.1-0.6-0.2-2.5,0.4-2.6c0.2,0,0.2,0,0.3,0.2   c0.1,0.3,0,0.7-0.1,1C71,32.4,70.9,32.8,71,33.2z M70.8,29.9c0-0.2,0.1-0.5,0.3-0.6c0.2,0,0.3,0.1,0.4,0.2c0.1,0.2,0,0.6-0.3,0.6   C71,30.2,70.8,30,70.8,29.9z"></path>		<path class="st1" d="M73,33.1c0.1,0.4,0.6,0.4,0.9,0.3c0.7-0.2,1-0.7,1.3-1.2c0.2-0.3,0.3-0.7,0.6-0.7c0.2,0,0.2,0,0.3,0.2   c0.2,1.1-1.1,2.2-2,2.4c-0.1,0-0.4,0.1-0.5,0.1c-0.6-0.1-1.1-0.5-1.3-1.1c-0.2-1,0.2-2.8,1.3-3c0.6-0.1,1.1,0.5,1.2,1   c0.2,1-0.6,1.5-1.4,1.7c-0.1,0-0.2,0-0.2,0C72.9,32.8,72.9,33,73,33.1z M73.5,32c0.4-0.1,0.6-0.4,0.5-0.8c0-0.1-0.2-0.5-0.4-0.4   l0,0c-0.3,0.1-0.6,0.7-0.6,1C73.1,32,73.3,32,73.5,32z"></path>		<path class="st1" d="M75.7,29.5C75.7,29.5,75.8,29.5,75.7,29.5c0.3,0.2,0.6,0.4,0.9,0.3c0.2,0,0.4-0.2,0.5-0.3   c0.2-0.1,0.3-0.2,0.5-0.3c0.2,0,0.3,0,0.3,0.2c0.1,0.3-0.1,0.7-0.3,1.1c-0.2,0.5-0.5,1.1-0.4,1.6c0,0.2,0.1,0.4,0.4,0.4   c0.5-0.1,0.6-0.6,0.7-1.1c0.1-0.4,0.2-0.8,0.5-0.9c0.1,0,0.1,0,0.2,0.1c0,0,0.1,0.2,0.1,0.2c0.2,0.8-0.5,2.2-1.4,2.4   c-0.6,0.1-0.9-0.3-1-0.8c-0.1-0.3,0-0.5,0-0.8c0-0.3,0-0.5,0-0.8c-0.1-0.3-0.3-0.3-0.5-0.3c-0.2,0-0.5-0.1-0.6-0.4   C75.5,29.9,75.5,29.6,75.7,29.5z"></path>		<path class="st1" d="M84.1,24.9l0.5-0.1c0.5,0,1.1,0.3,1.2,0.9c0.1,0.4,0.1,1.5-0.4,1.6c-0.1,0-0.2,0-0.3-0.2c0-0.2,0-0.4,0.1-0.6   c0-0.2,0.1-0.4,0-0.6c-0.1-0.5-0.5-0.5-1-0.5c-1.9,0.4-2.9,2.9-2.5,4.7c0.1,0.6,0.6,1.5,1.4,1.3c1-0.2,1.3-1.3,1.6-2.1   c0.2-0.5,0.3-0.9,0.5-0.9c0.2,0,0.3,0.1,0.3,0.3c0.2,0.7-0.4,5.1-1.6,5.3c-0.1,0-0.3,0-0.3-0.2c-0.1-0.3,0.2-0.6,0.4-0.8   c0.3-0.3,0.6-0.7,0.5-1.1c0-0.1-0.1-0.2-0.3-0.2c-0.2,0-0.3,0.1-0.5,0.2c-0.2,0.1-0.3,0.1-0.5,0.2c-1.2,0.3-1.9-0.8-2.2-1.9   C80.7,28,81.8,25.4,84.1,24.9z"></path>		<path class="st1" d="M86.5,27.1C86.5,27.1,86.6,27.1,86.5,27.1c0.3,0.2,0.6,0.4,0.9,0.3c0.2,0,0.4-0.2,0.5-0.3   c0.2-0.1,0.3-0.2,0.5-0.3c0.2,0,0.3,0,0.3,0.2c0.1,0.3-0.1,0.7-0.3,1.1c-0.2,0.5-0.5,1.1-0.4,1.6c0,0.2,0.1,0.4,0.4,0.4   c0.5-0.1,0.6-0.6,0.7-1.1c0.1-0.4,0.2-0.8,0.5-0.9c0.1,0,0.1,0,0.2,0.1c0,0,0.1,0.2,0.1,0.2c0.2,0.8-0.5,2.2-1.4,2.4   c-0.6,0.1-0.9-0.3-1-0.8c-0.1-0.3,0-0.5,0-0.8c0-0.3,0-0.5,0-0.8c-0.1-0.3-0.3-0.3-0.5-0.3c-0.2,0-0.5-0.1-0.6-0.4   C86.3,27.4,86.3,27.1,86.5,27.1z"></path>		<path class="st1" d="M90.4,26.4c0,0,0.1,0,0.2,0c0.1,0,0.2-0.1,0.3-0.1l0.3-0.1c0.1,0,0.2-0.1,0.3-0.2c0.1-0.1,0.2-0.2,0.3-0.2   c0.1,0,0.2,0.1,0.3,0.2c0.1,0.4,0,0.9-0.1,1.3c-0.1,0.5-0.3,1-0.2,1.5c0,0.2,0.2,0.5,0.5,0.4c0.4-0.1,0.4-0.5,0.5-0.9   c0.1-0.4,0.1-0.8,0.4-0.8c0.1,0,0.2,0.1,0.3,0.2c0.2,0.7-0.4,2-1.2,2.1c-0.2,0-0.3,0-0.5-0.1c-0.2-0.1-0.3-0.1-0.5-0.1   c-0.2,0-0.3,0.2-0.5,0.3c-0.1,0.1-0.3,0.2-0.5,0.3c-0.6,0.1-0.8-0.5-0.9-0.9C89.3,28.5,89.5,26.9,90.4,26.4z M90.4,29.6   c0,0,0.1,0,0.1,0c0.4-0.6,0.8-1.6,0.7-2.3c0-0.2-0.2-0.4-0.4-0.3c-0.8,0.2-0.9,1.7-0.8,2.3l0.1,0.2C90.2,29.6,90.3,29.6,90.4,29.6   z"></path>		<path class="st1" d="M93.6,25.5c0.1,0,0.2,0,0.3,0c0.1,0,0.2,0.1,0.3,0c0.1,0,0.3-0.1,0.4-0.2c0.1-0.1,0.2-0.1,0.4-0.2   c0.5-0.1,0.9,0.3,1,0.8c0.2,0.9-0.2,2.4-1.2,2.7c-0.4,0.1-0.5,0-0.8-0.2c0,0-0.1-0.1-0.2-0.1c0,0-0.1,0-0.1,0   c-0.3,0.1-0.3,0.8-0.2,1.6c0.1,0.8,0.1,1.6-0.2,1.7c-0.1,0-0.3-0.2-0.4-0.3C92.6,30.2,92.7,25.7,93.6,25.5z M93.6,27.8l0,0.1   l0,0.1c0.2-0.1,0.4,0,0.5,0c0.1,0,0.3,0.1,0.5,0c0,0,0.1,0,0.2,0c0.4-0.5,0.6-1.1,0.5-1.8c0-0.1-0.1-0.2-0.2-0.3c0,0-0.2,0-0.2,0   C94.4,26.1,93.5,27.3,93.6,27.8z"></path>		<path class="st1" d="M97.4,22.7c0.1,0,0.2,0,0.3,0.2c0.1,0.3-0.1,0.6-0.2,0.9c-0.2,0.3-0.3,0.6-0.2,1c0,0.1,0.2,0.1,0.3,0.1l0,0   c0.2,0,0.3-0.1,0.5-0.2c0.1-0.1,0.3-0.2,0.4-0.2c0.4-0.1,0.7,0.2,0.8,0.6c0.1,0.4,0,0.7-0.1,1.1c-0.1,0.4-0.2,0.8-0.1,1.2   c0,0.2,0.1,0.3,0.3,0.2c0.3-0.1,0.4-0.5,0.5-0.9c0.1-0.4,0.1-0.8,0.4-0.8c0.1,0,0.3,0.1,0.3,0.2c0.2,0.7-0.4,2.1-1.2,2.3   c-0.6,0.1-0.9-0.3-1-0.8c-0.1-0.3,0-0.6,0-0.9c0-0.3,0.1-0.6,0-0.9c0-0.2-0.2-0.3-0.4-0.3c-0.5,0.1-1,1.3-1.1,1.6   c-0.1,0.3-0.4,1.5-0.5,1.8c0,0.2-0.1,0.2-0.2,0.2c-0.2,0-0.3,0-0.3-0.2C95.9,28.2,96.6,22.9,97.4,22.7z"></path>		<path class="st1" d="M100.6,26.6c0,0.1,0.1,0.4,0.1,0.5c0.1,0.2,0.2,0.2,0.4,0.2c0.5-0.1,0.6-0.6,0.6-1.1c0.1-0.4,0.1-0.7,0.4-0.8   c0.2,0,0.3,0.1,0.3,0.3c0.2,0.8-0.4,2.1-1.2,2.3c-0.7,0.2-1.1-0.5-1.2-1.1c-0.1-0.6-0.2-2.5,0.4-2.6c0.2,0,0.2,0,0.3,0.2   c0.1,0.3,0,0.7-0.1,1C100.6,25.8,100.5,26.2,100.6,26.6z M100.3,23.3c0-0.2,0.1-0.5,0.3-0.6c0.2,0,0.3,0.1,0.4,0.2   c0.1,0.2,0,0.6-0.3,0.6C100.6,23.6,100.4,23.4,100.3,23.3z"></path>		<path class="st1" d="M103.2,23.9c0.2,0,0.4-0.1,0.6-0.1c0.2,0,0.4,0,0.6-0.1c0.1,0,0.2,0,0.2-0.1c0.1,0,0.1,0.1,0.1,0.2l0,0   c0,0,0,0.1,0,0.1l-0.4,1.7l0.1,0.4c0,0.1,0.2,0.1,0.3,0.1c0.4-0.1,0.5-0.5,0.7-0.9c0.1-0.3,0.2-0.6,0.5-0.7c0.1,0,0.3,0.1,0.3,0.2   c0.2,0.7-0.4,1.3-1,1.8c-0.3,0.3-0.6,0.6-0.8,0.9c-0.1,0.2-0.1,0.6-0.1,0.9c0,0.5,0,1-0.3,1.1c-0.2,0-0.3-0.1-0.3-0.3   s-0.1-0.4-0.1-0.6c0-0.2,0-0.4-0.1-0.7l0-0.1c0-0.1-0.1-0.2-0.2-0.2c-0.7,0.1-1.3,0-1.5-0.8C101.6,25.9,102,24.1,103.2,23.9z    M102.9,26.9c0.4-0.5,0.9-1.5,0.8-2.1c-0.1-0.2-0.1-0.4-0.4-0.3c-0.7,0.2-1,1.5-0.9,2.2C102.5,27,102.6,27,102.9,26.9z"></path>		<path class="st1" d="M106,23c0.1,0,0.3,0.1,0.3,0.2l0,0.1c0,0.1,0,0.2,0,0.4c-0.1,0.6-0.2,1.4-0.1,2c0.1,0.3,0.2,0.3,0.4,0.2   c0.3-0.4,0.5-1.1,0.7-1.8c0.2-0.8,0.5-1.5,0.6-1.5c0.1,0,0.2,0.1,0.2,0.2c0.1,0.4,0,0.8-0.1,1.2c-0.1,0.4-0.2,0.9-0.1,1.3   c0.1,0.2,0.1,0.4,0.4,0.4c0.5-0.1,0.6-0.6,0.7-1c0.1-0.4,0.1-0.7,0.4-0.8c0.2,0,0.2,0,0.3,0.2c0.2,0.8-0.5,2.1-1.3,2.3   c-0.2,0-0.4,0-0.6-0.1c-0.3-0.1-0.4-0.1-0.6-0.1c-0.3,0.4-0.4,0.5-0.8,0.5c-0.5,0.1-0.8-0.2-0.9-0.7C105.6,25.5,105.5,23.1,106,23   z"></path>		<path class="st1" d="M110,24.8c0.1,0.4,0.6,0.4,0.9,0.3c0.7-0.2,1-0.7,1.3-1.2c0.2-0.3,0.3-0.7,0.6-0.7c0.2,0,0.2,0,0.3,0.2   c0.2,1.1-1.1,2.2-2,2.4c-0.1,0-0.4,0.1-0.5,0.1c-0.6-0.1-1.1-0.5-1.3-1.1c-0.2-1,0.2-2.8,1.3-3c0.6-0.1,1.1,0.5,1.2,1   c0.2,1-0.6,1.5-1.4,1.7c-0.1,0-0.2,0-0.2,0C109.9,24.5,110,24.6,110,24.8z M110.5,23.7c0.4-0.1,0.6-0.4,0.5-0.8   c0-0.1-0.2-0.5-0.4-0.4l0,0c-0.3,0.1-0.6,0.7-0.6,1C110.1,23.7,110.3,23.7,110.5,23.7z"></path>	</g></g><path class="st2" d="M24.4,73.4c0.8,0.2,1.6,0.4,2.6,0.2c4.7-1.1,6.5-13.1,7.6-21c0.4-2.5,0.5-3.6,0.8-4.9c0.1-0.5,0.3-0.7,0.2-1.4 c-0.2-0.8-0.7-1.2-1.4-1.4c-0.3-0.1-0.6-0.1-0.9,0l-2.5,0.6c-5.6,1.3-10.6,6.1-9.2,12.4c0.3,1.1-2.2,2.5-2.6,0.6 c-1.7-7.6,4-14.3,11.1-15.9c4.1-0.9,8.3-0.9,12.5-0.9c3.7,0,7.7-0.1,11.5-0.8c0.3-0.1,0.7,0,1,0.2c0.3,0.2,0.5,0.4,0.6,0.6 c0.1,0.4-0.4,1-0.8,1.4c-0.1,0.1-0.3,0.2-0.5,0.2c-0.7,0.2-2.3,0.6-2.7,0.6c-1.4,0.3-2.9,0.5-4.4,0.6c-1.5,0.1-3,0.3-4.5,0.6 c-5.4,1.2-6.1,8-6.9,15c-0.9,7.3-1.7,15-8,16.4C25.7,77,23.8,73.2,24.4,73.4z"></path><path class="st2" d="M41.5,53.9c0,0,0.2,0,0.3,0c0.9,0.7,2.3,1.8,3.7,1.5c1-0.2,1.8-0.7,2.6-1.3c0.7-0.5,1.4-1,2.3-1.2 c0.7-0.2,1.2,0,1.4,0.8c0.3,1.4-0.5,3.1-1.3,4.9c-1.1,2.4-2.3,5-1.7,7.7c0.2,1,0.6,2,1.9,1.7c2.4-0.5,3-3,3.5-5.3 c0.4-2,0.8-3.8,2.2-4.1c0.4-0.1,0.7-0.1,0.9,0.3c0.1,0.2,0.2,0.9,0.3,1c0.9,4-2.6,10.2-6.7,11.2c-2.8,0.6-4.1-1.3-4.6-3.8 c-0.3-1.2-0.2-2.5-0.1-3.6c0.1-1.3,0.2-2.4-0.1-3.7c-0.3-1.3-1.3-1.4-2.4-1.5c-1.2-0.1-2.5-0.3-2.9-2.1 C40.6,55.5,40.4,54.1,41.5,53.9z"></path><path class="st2" d="M55.2,64.1c-1.1-5,1.3-11.9,6.7-13.1c3.1-0.7,5.5,0.8,6.2,3.9c0.1,0.7,0.2,1.3,0.3,1.9c0.1,0.7,0.1,1.3,0.3,2 c0.2,0.7,0.6,1.4,1.6,1.2c0,0,0.4-0.1,0.5-0.2l0.2-0.3c0.5-0.7,1.5-2.4,2.3-2.6c0.7-0.2,1.1,0.3,1.3,1c0.8,3.5-2.6,5-5.3,6.2 c-2,0.8-2.7,1.2-4.2,2.8c-0.8,0.8-1.5,1.5-3,1.8C58.6,69.4,55.9,67.4,55.2,64.1z M58,62.9c0.4,1.7,1.1,3.3,3.2,2.8 c1.2-0.3,1.8-0.6,2.4-1.8c-0.2-0.5-0.3-1-0.4-1.5c-0.6-2.6-0.3-4.5,1.4-7.1c0-0.1,0-0.4-0.1-0.5c-0.3-1.3-1.4-1.1-2.2-0.9 C58.7,54.8,57.3,59.6,58,62.9z"></path><path class="st2" d="M71.4,65.1c0-0.1-0.1-0.6-0.1-0.8c0.4-4.9,1-9.9,1.7-14.8c0.1-0.8,0.4-2.3,1.4-2.5c0.4-0.1,0.7,0,1.1,0 c0.4,0.1,0.9,0.2,1.4,0.1c0.7-0.2,1.3-0.5,1.8-0.8c0.5-0.3,1.1-0.6,1.7-0.7c0.7-0.2,1.5-0.1,2.2,0.1c0.7,0.1,1.4,0.2,2.2,0 c0.7-0.2,1.4-0.6,2-1c0.6-0.4,1.2-0.8,1.9-1c2.2-0.5,3.3,1.4,3.7,3.4c0.6,2.6-0.1,5.1-0.7,7.6c-0.1,0.4-0.3,0.8-0.3,1.2l0.4,1.9 c2.3-0.5,2.7-2.4,3.1-4.2c0.3-1.5,0.6-2.9,1.9-3.2c0.7-0.2,1.1,0.1,1.3,0.9c0.7,3.3-1.7,9.1-5.3,9.9c-2.1,0.5-3.7-1.2-4.1-3 c-0.4-1.6,0.1-3.3,0.6-4.8c0.5-1.7,1-3.3,0.6-5c-0.2-0.9-0.4-1.2-1.4-1c-3,0.7-3.9,5.9-4.7,10.4c-0.6,3.1-1,5.8-2,6 c-0.9,0.2-1.3-0.2-1.5-1.1c-0.4-2,0.1-4.2,0.8-6.3c0.6-2.2,1.3-4.4,0.8-6.6c-0.2-0.9-0.4-1.2-1.4-1c-3.9,0.9-4.9,6.6-5.8,11.4 c-0.6,3.1-1,5.8-2.1,6C71.8,66.3,71.5,65.8,71.4,65.1z"></path><path class="st2" d="M100.4,31.4c0.7-0.1,1.4,0.2,1.6,0.9c0.3,1.2-0.4,2.5-1,3.8c-0.8,1.4-1.5,3-1.2,4.6c0.2,0.7,0.3,1.3,1.2,1.1 c0.6-0.1,1.1-0.3,1.5-0.5c0.5-0.2,1-0.4,1.5-0.5c3-0.7,5.2,1.5,5.8,4.3c1,4.5-1.8,12.5-6.7,13.6c-1.9,0.4-2.8-0.1-4.6-1.3 c-0.1,0-0.3,0-0.3,0c-0.9,0.2-1.2,1.1-1.5,2.1c-0.3,0.9-0.6,1.8-1.4,2c-0.8,0.2-1.2-0.2-1.4-1C93.9,57.5,96.3,32.3,100.4,31.4z  M102.6,55.2c3.2-0.8,5-6.4,4.3-9.4l-0.3-1.3c-0.7-1.2-1.4-1-2.3-0.8c-3.2,0.7-6.8,6.8-6,10C98.6,55,101.6,55.5,102.6,55.2z"></path><path class="st2" d="M143.6,44.5c0.4,1.9,2.7,1.7,4.1,1.4c3.5-0.8,4.9-3.5,6.1-5.8c0.9-1.6,1.6-3.1,3-3.4c0.8-0.2,1.1,0.2,1.3,0.9 c1.1,5.1-5.3,10.3-9.5,11.2c-0.4,0.1-1.9,0.4-2.4,0.5c-2.9-0.3-5.3-2.3-5.9-5.1c-1-4.7,0.9-13.1,6.3-14.3c2.7-0.6,4.9,2.1,5.5,4.5 c1,4.7-2.7,7.1-6.6,8c-0.4,0.1-0.7,0.2-1.1,0.2C143.4,43.2,143.5,43.8,143.6,44.5z M146.2,39.1c1.8-0.4,2.9-2.1,2.5-3.9 c-0.1-0.6-0.9-2.1-2-1.9l-0.1,0.1c-1.3,0.5-3,3.1-2.7,4.6C144.2,39.2,145.1,39.4,146.2,39.1z"></path><g>	<path class="st1" d="M140.4,51.2l-5.5-24.7c-0.6-2.5-2.1-4.7-4.3-6.1c-2.2-1.4-4.8-1.8-7.3-1.3l-0.5,0.1c-2.5,0.6-4.7,2.1-6.1,4.3  c-1.3,2-1.8,4.3-1.4,6.7l0.7,3l4,17.7c0.6,2.6,3.1,4.3,5.7,3.8c1.3-0.3,2.5-1,3.2-2.1s1-2.5,0.7-3.8l-2.9-12.9  c-0.5-2.1-1.8-3.9-3.6-5.1c-1.3-0.8-2.8-1.3-4.3-1.3l0.7,3l0,0c0.7,0.1,1.4,0.4,2,0.7c1.2,0.7,2,1.9,2.3,3.2l2.9,12.9  c0.1,0.5,0,1-0.3,1.5c-0.3,0.4-0.7,0.7-1.3,0.8c-1,0.2-2-0.5-2.3-1.5l-4-17.9l-0.6-3c-0.2-1.5,0.2-3,1-4.4c1-1.5,2.5-2.6,4.2-3  l0.5-0.1c1.7-0.4,3.5-0.1,5.1,0.9c1.5,1,2.6,2.5,3,4.2l5.5,24.7c0.2,0.8,1,1.3,1.8,1.1C140.1,52.8,140.6,52,140.4,51.2z"></path>	<path class="st1" d="M129.1,53.8c-0.8,0.2-1.3,1-1.1,1.8c0.6,2.8-1.1,5.6-3.9,6.2c-1.4,0.3-2.7,0.1-3.9-0.7c-1.2-0.7-2-1.9-2.3-3.2  l-4.3-19.1c-0.4-2,0.3-4,1.8-5.2h0l-0.7-3.1c-3.1,1.7-4.8,5.3-4,8.9l4.3,19.1c0.5,2.1,1.8,3.9,3.6,5.1c1.3,0.8,2.8,1.3,4.4,1.3  c0.6,0,1.2-0.1,1.8-0.2c4.4-1,7.2-5.4,6.2-9.8C130.7,54.1,129.9,53.6,129.1,53.8z"></path></g></svg>