<?xml version="1.0" encoding="utf-8"?>
<!-- Generator: Adobe Illustrator 22.1.0, SVG Export Plug-In . SVG Version: 6.00 Build 0)  -->
<svg version="1.1" id="Calque_1" xmlns="http://www.w3.org/2000/svg" xmlns:xlink="http://www.w3.org/1999/xlink" x="0px" y="0px"
	 viewBox="0 0 80.3 89.1" style="enable-background:new 0 0 80.3 89.1;" xml:space="preserve">
<metadata><?xpacket begin="﻿" id="W5M0MpCehiHzreSzNTczkc9d"?>
<x:xmpmeta xmlns:x="adobe:ns:meta/" x:xmptk="Adobe XMP Core 5.6-c143 79.161356, 2017/09/07-01:11:22        ">
   <rdf:RDF xmlns:rdf="http://www.w3.org/1999/02/22-rdf-syntax-ns#">
      <rdf:Description rdf:about=""/>
   </rdf:RDF>
</x:xmpmeta>
                                                                                                    
                                                                                                    
                                                                                                    
                                                                                                    
                                                                                                    
                                                                                                    
                                                                                                    
                                                                                                    
                                                                                                    
                                                                                                    
                                                                                                    
                                                                                                    
                                                                                                    
                                                                                                    
                                                                                                    
                                                                                                    
                                                                                                    
                                                                                                    
                                                                                                    
                                                                                                    
                           
<?xpacket end="w"?></metadata>
<style type="text/css">
	.st0{fill:#004262;}
	.st1{clip-path:url(#SVGID_2_);}
	.st2{fill:#FFFFFF;}
	.st3{fill:#FACB9D;}
	.st4{fill:#C89D64;}
	.st5{fill:#666769;}
	.st6{fill:#1A171B;}
	.st7{fill:none;stroke:#000000;stroke-width:1.193;stroke-miterlimit:10;}
	.st8{fill:#FFFFFF;stroke:#1A171B;stroke-width:0.7353;stroke-miterlimit:10;}
	.st9{fill:#4FC1EB;stroke:#1A171B;stroke-width:0.5884;stroke-miterlimit:10;}
	.st10{fill:none;stroke:#1A171B;stroke-width:0.5965;stroke-linecap:round;stroke-miterlimit:10;}
	.st11{fill:none;stroke:#1A171B;stroke-width:1.193;stroke-linecap:round;stroke-miterlimit:10;}
	.st12{opacity:0.5;fill:#FFFFFF;}
	.st13{fill:none;stroke:#1A171B;stroke-width:1.193;stroke-miterlimit:10;}
	.st14{opacity:0.8;fill:#FFFFFF;}
	.st15{fill:#818284;}
	.st16{fill:none;stroke:#1A171B;stroke-width:0.5965;stroke-miterlimit:5;}
	.st17{opacity:0.25;fill:none;stroke:#C89D64;stroke-width:0.5965;stroke-miterlimit:10;}
	.st18{opacity:0.25;fill:none;stroke:#C89D64;stroke-width:0.8947;stroke-miterlimit:10;}
	.st19{opacity:0.25;fill:#C89D64;}
	.st20{opacity:0.1;fill:#FFFFFF;}
	.st21{fill:#FABB00;}
	.st22{fill:none;stroke:#1A171B;stroke-width:0.6914;stroke-miterlimit:10;}
	.st23{fill:#CECFD1;}
</style>
<ellipse transform="matrix(9.853766e-02 -0.9951 0.9951 9.853766e-02 -18.6969 83.7522)" class="st0" cx="36.9" cy="52.2" rx="36.9" ry="36.9"/>
<g>
	<defs>
		<path id="SVGID_1_" d="M71.9,52.2c0,19.4-15.7,35.1-35.1,35.1S1.8,71.6,1.8,52.2S17.5,0,36.9,0S71.9,32.8,71.9,52.2z"/>
	</defs>
	<clipPath id="SVGID_2_">
		<use xlink:href="#SVGID_1_"  style="overflow:visible;"/>
	</clipPath>
	<g class="st1">
		<path class="st2" d="M30.1,12.3c0,0,8.8-1,13.6,2.9c3,2.5,6.7,8.7,6.7,8.7l2.2,10.6l-8.3,1.6L30.1,12.3z"/>
		<path class="st3" d="M14.3,79.4l3.1-13.3c0,0-4.7-1.4-4.7-3.8c0-2.4-0.1-2.7-0.1-2.7s-4-7.2-4-8.8c0-1.6-0.2-3.4,1.1-3.3
			s1.8-0.8,1.8-0.8l3.6-23c0,0,4.1-6.9,7.7-8.4s9.9-3.5,14.6-1.3s6,0.2,11.1,9.9l2.1,0c0.1,0,0.2,0.1,0.1,0.2
			c-0.3,0.4-0.9,1.2-0.4,1.8c0.6,0.9,1.2,3.1,1.3,4.9c0.1,0.9,0.6,2.4,0.3,3.9c0,0,0.6-0.5,1.6,0.2c2.1,1.5,2.5,13.5,1.6,20.5
			c-0.9,7-6.3,9.5-6.3,9.5l-5.5,13.3l-0.6,7.9c0,0,0.8,3.9-7.1,3.1c-6.6-0.7-9.1,0.6-9.8-2c-0.7-2.6-3.2-0.9-6.2-1.1
			C16.6,86,16.1,84.7,14.3,79.4z"/>
		<path class="st4" d="M25.8,87.3c1.9,1.9,5.9,1.2,9.8,2c2.5,0.5-1.3-2.1-1.3-2.1l7.7-8.8l3.3-8.1l-0.9-22.2c0-0.5,0.1-1,0.3-1.4
			l0.4-0.8l-3.9,0.3c-0.8,0.1-1.7-0.2-2.2-0.8c-0.4-0.5-0.6-1.2-0.5-2c0.3-1.4,1.5-3,2.2-3.9c0.3-0.4,0.5-0.9,0.4-1.4l-2-6.6
			l-1.8-1.6l-1.5,7.5c0,0-3.7,1.2-5.5,1.3c-1.8,0-6.3,3-8,1c-1.7-2,1.4-8.5,1.4-8.5l4.1-2.5l-6.3,1.3c-0.5,0.1-1.1,0-1.5-0.3
			c-0.5-0.4-1.2-1.2-1.7-2.5c-0.6-1.6,1.2-5.9,2.2-9.7c-2.8,2.5-5.2,6.5-5.2,6.5l-3.8,22.9c0,0-0.5,0.9-1.8,0.8
			c-1.3-0.1-1.2,1.7-1.1,3.3c0,1.6,4,8.8,4,8.8s0.2,0,0.1,2.4c-0.1,4.1,4.9,3.7,4.9,3.7L14,80.6c1.6,5.8,3.6,3.1,6.1,4.8
			C22.9,87.3,23.3,84.8,25.8,87.3z"/>
		<path class="st5" d="M16.7,45.7l-1.4-8.2c0,0-0.4-4,0.9-4.6c1.3-0.6,1.3-0.6,1.3-0.6s-2.5-5.7-1.4-10.9c0,0-4.8,5.2-5.6,10.3
			c-0.8,5.1-1.2,13,0.8,16.8c0,0,1.6-1.7,3.6,1.4"/>
		<path class="st6" d="M14.1,50c0,0,4.1,5.5,2.6,7.6c-0.7,0.9,0.2,3.7,0.2,3.7l0,2.8c0,0,0.8,0.7,2.5,1.1c1.7,0.4,3.6,3,5.6,5.1
			c2,2.1,10.9,5.1,11.9,5.8c1,0.7,6.4,3,7.8,2.7c1.5-0.3,9.5-4.4,10.4-5.3c0.9-0.9,1.7-9.2,2.1-11c0.4-1.7,0.6-7.7,0.1-9.4
			c-0.5-1.7-2.1-9.3-2.1-9.3s-0.1,10.3-1.7,12c-1.1,1.1-1.6-2.1-1.8-4.3c-0.1-1-0.8-1.9-1.9-2.2l-2.2-0.5l-8.3-0.5
			c-0.7-0.1-1.4,0-2,0.3l-3.9,1.3c-1,0.5-1.7,1.4-1.9,2.4l-0.7,3l0.4,3c0.3,1.8-1.6,3.1-3.2,2.2l-2.2-1.2c0,0-1.3-5.6-3.7-8.8
			c-2.4-3.1-5.4-4.8-5.4-4.8"/>
		<path class="st2" d="M49.2,53.5c0,0-0.4,3.8-1.7,4.3c-1.3,0.5-5.4-0.9-7.1-1.6c-1.7-0.6-4.8-3-5.7-2.5c0,0,3.7-1.5,7.8-1
			C47.3,53.2,50.7,48.6,49.2,53.5z"/>
		<path class="st7" d="M55.5,49.4c0,0,0.6-11.8-1.1-14.1l-1.7-0.7c0,0-0.6-7.3-1.6-8c-0.4-0.3-0.4-0.7-0.2-1.2
			c0.3-0.8,0.3-1.6-0.2-2.3c-1.3-2-3.7-5.5-5.4-7c-2.5-2-9.4-4.7-14.5-3.7S20.4,15.7,15,23.8s-5.7,15.9-3.9,24"/>
		<path class="st6" d="M55.3,27c0,0-1.5-0.8-4.3-0.4c-2.5,0.4-4.6,0.5-5.9,1.1c-1,0.5-1.7,1.8-1.7,1.8s-1.2-0.6-2.6-0.5
			s-2.8,1.1-2.8,1.1s-1.4-1.7-3.5-1.7c-2.3,0.1-8.6,0.6-10.7,2.1c-2.1,1.5-3.8,4.2-5.8,6.9s-6,9.1-6,9.1l0.4,1.3l6.1-8.9l4.8-4.9
			c0.6,2.9,1.2,3.8,3.5,4.9c2.3,1.2,7.7-1,9.7-1.3c2-0.3,2-5.3,2-5.3s0.8-0.5,2.2-1c1.4-0.5,2.8,0.2,2.8,0.2
			c0.1,1.4,1.8,4.1,3.1,4.6c1.2,0.5,4.9-0.5,7.6-1.3C57,34,55.3,27,55.3,27z M36.4,36.3c-1.2,0.8-6.9,2.7-8.9,1.9
			c-2-0.8-3.5-3.3-3.4-4.8c0.1-1.6,0-2.2,1.2-2.5c1.3-0.3,2.5-0.5,5-1c1.8-0.3,3.6-1,5-0.3c1.4,0.7,2,0.7,1.8,1.7
			C37,32.2,37.6,35.5,36.4,36.3z M54.5,33.2c-0.7,0.7-0.7,1-2.7,1.2c-1.9,0.2-3,1.2-4.1,1c-1.1-0.2-3.2-2.6-3.3-3.9
			c-0.2-1.3,0.9-2.6,0.9-2.6c0.8-0.6,4.2-1,5.1-1.1c0.9-0.1,3.5-1,3.9,0C54.6,28.8,55.2,32.5,54.5,33.2z"/>
		<path class="st6" d="M35.8,30.7c0,0-2.7-1.5-5.9-1.6c-3.2-0.1-5.1,0.2-6.1,1.2c-1,1.1-1.9,1.6-1,1.7c0.9,0,4.1-1.4,5.1-1.3
			C28.9,30.8,35.8,30.7,35.8,30.7z"/>
		<path class="st6" d="M32.8,29.6c-0.8-1.3-2.1-1.4-3.2-1.4c-3.2-0.1-6.2,0.6-7.2,1.7c-1,1.1-1.9,1.6-1,1.7c0.9,0,3.3-2.5,5.1-1.3"
			/>
		<path class="st6" d="M52.6,24c0.4-0.6-2.9-1.6-4.9,0.1c-1.8,1.5-3.7,2.2-3.6,2.6c0.1,0.4,1.5,1.1,2.1,0.4c0.6-0.7,3.8-2.5,4.8-2.5
			C52,24.7,52.6,24,52.6,24z"/>
		<path class="st8" d="M45.6,32c0,0,1-1.2,2.5-1.4s3.3-0.4,3.2,1c-0.1,1-1.1,1.1-2,1.4C48.3,33.4,47.2,33.1,45.6,32z"/>
		<path class="st9" d="M48.8,30.5c0.4,0.2,0.8,0.5,0.9,1c0.4,1.2-1.6,1.4-1.6,1.4s-0.6,0.3-1.4-0.9c-0.3-0.5-0.2-0.8-0.1-1
			c0,0,0.4-0.2,1-0.3C48.4,30.5,48.8,30.5,48.8,30.5z"/>
		<path class="st10" d="M43.3,30.9c0,0-0.6,2.4,0,3.7c1.1,2.4,2.4,4.6,4.1,6.5c0.7,0.7,2.4,3.8,1.4,5c-1,1.2-0.9,0.8-0.9,0.8"/>
		<path class="st6" d="M48.2,45c0,0,0-1.2-1.3-0.5s-2.9,1.9-1.9,2c0.2,0,0.4,0,0.6,0c0.6,0,1.3-0.4,1.5-0.9c0.1-0.2,0.3-0.4,0.5-0.4
			C48,45.2,48.2,45,48.2,45z"/>
		<path class="st6" d="M43.3,46.5c0.4-0.1,1-0.6-0.9-0.9c-1.9-0.3-2.1-0.1-2.8,0.4c-0.7,0.5-1,1.2-0.2,1.2c0.5,0,1.7-0.4,2.3-0.7
			c0.2-0.1,0.4-0.1,0.6-0.1C42.3,46.5,42.9,46.6,43.3,46.5z"/>
		<path class="st10" d="M37.6,42.4c0,0-2,2.1-1.6,3.4c0.4,1.4,0.6,1.1,2.3,2.3"/>
		<path class="st10" d="M14.9,52.4c0,0-2.9-3.2-4.5-2.6c-1.5,0.6-1.3,0.9-1,1.9"/>
		<path class="st10" d="M12.3,50.5c0,0-1.1,2.3-0.5,4.1c0.6,1.8,0.4,2.6,0.4,2.6s0.9-2,1.5-2.9"/>
		<path class="st11" d="M16.1,65.9c0,0-1.1,1.6-2,1.7c-0.9,0.1-2-0.8-1.7-3.2s2.5-1.6,2.5-0.9"/>
		<path class="st7" d="M14.3,70.5"/>
		<path class="st12" d="M25.8,25.7c-0.1,0.4-0.6,1.1-2,1.1c-1,0-3.2,0.6-1.6,1c1.6,0.4,2-0.6,3.6-0.5c1.6,0.1,0.5-2.6,1.3-3.6
			c0.7-0.9-1-4.2-1.1-4.8c-0.3-1.3,1.3-3.1,1.3-3.1L25.6,17c-1.3,2.4,0.1,3.9,0.4,5"/>
		<path class="st13" d="M14.4,49.7c0,0-3.2-3-5.1-1.5s0,4.8,0,4.8s0.6,1.8,1.4,2.8c0.7,1,2.3,3.8,2.3,3.8s-0.6,2.2-0.2,3.2
			c0.3,1,1.7,3.2,3.4,3c1.6-0.2,1.6-0.7,1.6-0.7l-4.4,18.5l28.4,5.7l1.7-11"/>
		<path class="st14" d="M53,27.7l0.9,0.3c0,0,0.2,0.3,0.4,1.4c0.2,1.1-0.1,2.7-0.1,2.7l-0.8,0.5c0,0-0.1-2.5-0.1-3.3
			S53,27.7,53,27.7z"/>
		<g>
			<g>
				<path class="st15" d="M32.5,64.9c0.5,0.1,1,0.3,1.4,0.6C33.6,65.2,33.1,64.9,32.5,64.9z"/>
				<path class="st6" d="M32.5,64.9c0.5,0.1,1,0.3,1.4,0.6C33.6,65.2,33.1,64.9,32.5,64.9L32.5,64.9z"/>
			</g>
			<g>
				<path class="st15" d="M53.3,56.8c0.4,0,0.7,0,1.1,0c0.8,0,1.6,0.1,2.4,0.2c0,0.3,0,0.5,0,0.8L53.3,56.8z"/>
				<g>
					<path class="st15" d="M54.4,56.8c0.8,0,1.5,0.1,2.3,0.2c0,0.2,0,0.4,0,0.5l-1.8-0.5l-0.8-0.2C54.2,56.8,54.3,56.8,54.4,56.8
						 M54.4,56.6c-0.6,0-1.1,0-1.7,0.1c1.4,0.4,2.8,0.8,4.2,1.2c0-0.3,0-0.7,0-1C56.1,56.7,55.2,56.6,54.4,56.6L54.4,56.6z"/>
				</g>
			</g>
			<path class="st5" d="M56.5,62.3c0.1-0.4,0.2-0.9,0.2-1.6c0,0,0,0,0,0c-1.5-0.4-3-1.1-4.3-2c0.4,1,1.4,1.4,2.3,1.9
				c0.9,0.5,1.7,1.5,1.3,2.4c-0.5,0.9-1.6,0.2-2.5-0.4c-1.5-1-2.9-2.2-2.9-4c-1.1,0.3-1.3,1.9-0.7,2.9c0.6,1,1.6,1.6,2.4,2.5
				c2.2,2.4,1.9,7-1.1,8.3c-1.1-0.6-0.1-1.7,0.5-2.7c0.5-1.1-0.4-3.8-0.5-5c-1.9-3.9-3.6-3.3-5-5.8c-0.6,1.8,0.9,3.4,2,5
				c2.3,3.1,1.9,4.2-0.3,11c-1,0.1-1.8-1.1-1.7-2.1c0.1-1,0.1-2.1,0.7-2.9s1.3-1.5,1.3-2.6c0.1-2-1.3-3.3-3.1-3.9
				c-1.8-0.7-4-1.3-4.8-3.1c-0.2,1.5,1.3,2.9,2.6,3.4c2.4,1.1,3.9,2.5,2.4,4.7c-0.7-0.9-1.8,1-1.5,2.2c0.1,0.3,0.3,0.6,0.5,0.9
				c0.7,1.3,0.1,3-1.1,3.7c-1.3,0.7-3,0.1-3.7-1.1c0.8-1.3,2.3-2.5,2.3-4c-0.3-1.6,0.2-1.7-0.1-2.8c-0.3-1.1-2.3-2.1-3.2-2.8
				c-0.9-0.7-1.7-1.4-3.4-3.2c0,1.7,3,4.8,3.8,5.6c0.8,0.8,1.3,2.1,0.9,3.2c-0.4,1.1-1.8,1.8-2.8,1.2c-1.1-0.7-1.1-2.3-1.5-3.5
				c-0.3-0.7-0.8-1.3-1.4-1.8c0.6,0.6,0.9,1.6,0.6,2.4c-0.5,1.3-2.5,1.9-3.6,0.9c-0.9-0.8-1.1-2.1-1.4-3.2s-1-2.4-2.2-2.4
				c1,0.7,1.3,2.3,0.5,3.2c-2.4-0.4-1.1-5.3-3.5-6c-0.7,0.1-0.6,1.1-0.2,1.7c0.4,0.5,0.9,1.3,0.5,1.8c-0.3,0.4-1,0.3-1.3-0.1
				c-0.4-0.4-0.4-2.4-0.5-2.9c-0.3-1.5-0.2-2.4-0.5-3.9c-0.8,0-1.2,2.2-0.7,2.8c0.4,0.7,0.5,1.9-0.3,1.8c-0.5-0.3-0.7-4.1-0.3-5.7
				c0.4-1.5-0.3-7.1-5.2-10.3c-1,0-4.5,1.2-1.3,3.4c1.6,1.2,3.2,6,3.2,7.3c0,1.1-0.6,2-0.5,3c0.1,1.8,0.2,3.3,0.3,4.1
				c0,0.1,0.5,0.1,0.5,0.2c0.4,0.2,1,0.7,1.9,0.9c1.7,0.4,3.5,2.9,5.5,5c1.9,2.1,10.6,5,11.6,5.6c0.9,0.7,6.2,2.9,7.6,2.6
				c1.4-0.3,8.9-4,9.8-4.9C55.4,72.1,56.1,64,56.5,62.3z"/>
		</g>
		<path class="st16" d="M28.5,34.2c1.6,0.8,5.8-0.3,5.8-0.3s-2.6,0.1-4.1,0.2c-1.5,0.2-2.4,0.1-2.4,0.1"/>
		<path class="st6" d="M26.8,34.9c0,0-0.9-2.6,6.1-0.7c0,0-3.1,0-4.4,0S26.8,34.9,26.8,34.9z"/>
		<path class="st17" d="M33.5,35c-2.1,0.9-3.7,1-4.4,0.9c-0.8-0.1-1.3-0.9-1.3-0.9s-0.6,0-0.8,0.5"/>
		<path class="st18" d="M27.2,45.9c0,0-1.7,3.3-1.5,5.4c0.3,2,0.8,4.3,0.8,4.3"/>
		<path class="st18" d="M26.2,40c0,0-2.6,4.9-2.9,7.5"/>
		<path class="st18" d="M32.7,49.4c0,0-3.6,0.1-3.6,7"/>
		<path class="st18" d="M31.6,45.9c0,0-3.2,1.6-3.7,5"/>
		<path class="st19" d="M23.6,30.9c0,0,0,1.8,1.6,2.2c1.6,0.4,1.5,1,3,0.8c1.6-0.2,5.2,0.2,5.2,0.2s4.3-2.9,1.5-3.5
			c-2.8-0.6-5.4-1.4-7.2-0.9C26,30.2,23.6,30.9,23.6,30.9z"/>
		<path class="st14" d="M34.7,30l1.7,0.5c0,0,0.4,0.5,0.3,1.4c-0.1,1-0.6,3.3-0.6,3.3l-1.3,0.2c0,0,0.2-2.5,0.2-3.5
			C35.1,30.9,34.7,30,34.7,30z"/>
	</g>
</g>
<circle class="st6" cx="48.1" cy="31.6" r="0.7"/>
<polygon class="st2" points="49,32.3 48.1,31.5 47.8,31.6 48.4,32.6 "/>
<path class="st0" d="M49.8,31.5"/>
<path class="st20" d="M36.4,36.3c-1.2,0.8-6.9,2.7-8.9,1.9c-2-0.8-3.5-3.3-3.4-4.8s0-2.2,1.2-2.5s2.5-0.5,5-1c1.8-0.3,3.6-1,5-0.3
	c1.4,0.7,2,0.7,1.8,1.7C37,32.3,37.5,35.6,36.4,36.3z"/>
<path class="st20" d="M54.5,33.3c-0.7,0.7-0.7,1-2.7,1.2c-1.9,0.2-3,1.2-4.1,1c-1.1-0.2-3.2-2.6-3.3-3.9c-0.2-1.3,0.9-2.6,0.9-2.6
	c0.8-0.6,4.2-1,5.1-1.1c0.9-0.1,3.5-1,3.9,0C54.5,28.8,55.2,32.5,54.5,33.3z"/>
<g>
	<path class="st21" d="M64.7,36.6c-0.7-1-1.4-0.2-1.4-0.2s0.1-0.8-0.5-1.5c-0.6-0.8-1.8-0.3-1.8-0.3L47,53.8
		c-0.2,1.9,1.2,1.1,1.2,1.1L65,38.6c0,0,0.8-0.6-0.3-0.8C64.2,37.7,65.4,37.6,64.7,36.6z"/>
	<path class="st6" d="M47.1,54.9c0.3,0.3,0.5,0,0.8,0L65,37.2c0-0.2-0.1-0.4-0.2-0.6c-0.7-1-1.4-0.2-1.4-0.2s0-0.1,0-0.3L47.1,54.9z
		"/>
	<path class="st3" d="M61,34.6c0,0,0.6,0,1.2,0.8s0.1,2,0.1,2s0.9-1,1.8-0.1c0.6,0.6,0.2,0.8,0.2,0.8s1.2-0.3,0.8,0.6s2.9-7,2.9-7
		L61,34.6z"/>
	<path class="st22" d="M67.4,31.9L61,34.6L47,53.8c0,0-0.1,0.1-0.1,0.4c0,0.8,0.5,0.7,1,0.7c0.2,0,0.4-0.1,0.6-0.3
		c2.2-2.1,16.6-16.1,16.6-16.1c0,0,2-4.7,2.6-6.4C67.8,32,67.6,31.8,67.4,31.9z"/>
	<path class="st6" d="M67.1,33.8c0-0.1,0.1-0.1,0.1-0.2l0.8-2l-2.1,0.8l0,0c-0.1,0-0.1,0.1-0.2,0.1c-0.4,0.3-0.5,0.9-0.1,1.3
		c0.3,0.4,0.9,0.5,1.3,0.1C66.9,34,66.9,33.9,67.1,33.8l0,0.1L67.1,33.8z"/>
	<path class="st23" d="M66.8,73.9l-12.4-7.8c-0.1,0-7.5-11.3-7.5-11.3c-0.3-0.4,0-1,0.5-0.9l0.7,0c0.2,0,0.4,0.1,0.5,0.3
		c0,0,6.4,8.3,6.5,8.3l15.7,6.9c0.1,0,0.2,0.1,0.2,0.2l3.6,4.7c0.3,0.4,0,1.1-0.6,1L67.1,74C67,74,66.9,74,66.8,73.9z"/>
	<polygon class="st23" points="67.1,32.6 63.3,37.4 47.3,54.9 48.2,54.9 65.1,38.5 67.4,33.1 	"/>
</g>
<ellipse transform="matrix(0.866 -0.5 0.5 0.866 -15.6496 27.9502)" class="st3" cx="44.3" cy="43.2" rx="2.8" ry="3.2"/>
<path class="st12" d="M43.3,37.5c0,0,1.5,2.1,2.3,3.2c0.8,1.2,1.8,2.7,0.6,3.4c-1.2,0.7-2.4-0.9-2-1.5c0.4-0.6,1.2-0.9,0.4-2.1
	C43.8,39.4,43.3,37.5,43.3,37.5z"/>
<path class="st19" d="M50.7,24.2c0,0-3.4,1-4.5,2.1c-1.2,1.1-1.4,2.2-1.8,2.8c-0.5,0.6,0,2.9,0,2.9l1.3,0c0,0,2.4-2.9,4.1-3
	c1.7-0.2,1.9-0.9,1.9-0.9L50.3,26L50.7,24.2z"/>
</svg>
