<?xml version="1.0" encoding="utf-8"?>
<!-- Generator: Adobe Illustrator 22.1.0, SVG Export Plug-In . SVG Version: 6.00 Build 0)  -->
<svg version="1.1" id="Calque_1" xmlns="http://www.w3.org/2000/svg" xmlns:xlink="http://www.w3.org/1999/xlink" x="0px" y="0px"
	 viewBox="0 0 80.3 89.1" style="enable-background:new 0 0 80.3 89.1;" xml:space="preserve">
<metadata><?xpacket begin="﻿" id="W5M0MpCehiHzreSzNTczkc9d"?>
<x:xmpmeta xmlns:x="adobe:ns:meta/" x:xmptk="Adobe XMP Core 5.6-c143 79.161356, 2017/09/07-01:11:22        ">
   <rdf:RDF xmlns:rdf="http://www.w3.org/1999/02/22-rdf-syntax-ns#">
      <rdf:Description rdf:about=""/>
   </rdf:RDF>
</x:xmpmeta>
                                                                                                    
                                                                                                    
                                                                                                    
                                                                                                    
                                                                                                    
                                                                                                    
                                                                                                    
                                                                                                    
                                                                                                    
                                                                                                    
                                                                                                    
                                                                                                    
                                                                                                    
                                                                                                    
                                                                                                    
                                                                                                    
                                                                                                    
                                                                                                    
                                                                                                    
                                                                                                    
                           
<?xpacket end="w"?></metadata>
<style type="text/css">
	.st0{fill:#004262;}
	.st1{clip-path:url(#SVGID_2_);}
	.st2{fill:#FFFFFF;}
	.st3{fill:#FACB9D;}
	.st4{fill:#C89D64;}
	.st5{fill:#666769;}
	.st6{fill:#1A171B;}
	.st7{fill:none;stroke:#000000;stroke-width:1.193;stroke-miterlimit:10;}
	.st8{fill:#FFFFFF;stroke:#1A171B;stroke-width:0.7353;stroke-miterlimit:10;}
	.st9{fill:#4FC1EB;stroke:#1A171B;stroke-width:0.5884;stroke-miterlimit:10;}
	.st10{fill:none;stroke:#1A171B;stroke-width:0.5965;stroke-linecap:round;stroke-miterlimit:10;}
	.st11{fill:none;stroke:#1A171B;stroke-width:1.193;stroke-linecap:round;stroke-miterlimit:10;}
	.st12{opacity:0.5;fill:#FFFFFF;enable-background:new    ;}
	.st13{fill:none;stroke:#1A171B;stroke-width:1.193;stroke-miterlimit:10;}
	.st14{opacity:0.8;fill:#FFFFFF;enable-background:new    ;}
	.st15{fill:#818284;}
	.st16{fill:none;stroke:#1A171B;stroke-width:0.5965;stroke-miterlimit:5;}
	.st17{opacity:0.25;fill:none;stroke:#C89D64;stroke-width:0.5965;stroke-miterlimit:10;enable-background:new    ;}
	.st18{opacity:0.25;fill:none;stroke:#C89D64;stroke-width:0.8947;stroke-miterlimit:10;enable-background:new    ;}
	.st19{opacity:0.25;fill:#C89D64;enable-background:new    ;}
	.st20{opacity:0.1;fill:#FFFFFF;enable-background:new    ;}
	.st21{fill:#FABB00;}
	.st22{fill:#AE792C;}
	.st23{fill:none;stroke:#1A171B;stroke-width:0.6914;stroke-miterlimit:10;}
	.st24{fill:#98763B;}
</style>
<ellipse class="st0" cx="41.3" cy="46.8" rx="35.4" ry="35.4"/>
<g>
	<g>
		<defs>
			<path id="SVGID_1_" d="M76.3,46.8c0,19.4-15.7,35.1-35.1,35.1s-35-15.7-35-35.1S19,3.5,38.4,3.5S76.3,27.4,76.3,46.8z"/>
		</defs>
		<clipPath id="SVGID_2_">
			<use xlink:href="#SVGID_1_"  style="overflow:visible;"/>
		</clipPath>
		<g class="st1">
			<path class="st2" d="M34.5,6.9c0,0,8.8-1,13.6,2.9c3,2.5,6.7,8.7,6.7,8.7L57,29.1l-8.3,1.6L34.5,6.9z"/>
			<path class="st3" d="M18.7,74l3.1-13.3c0,0-4.7-1.4-4.7-3.8c0-2.4-0.1-2.7-0.1-2.7s-4-7.2-4-8.8s-0.2-3.4,1.1-3.3
				s1.8-0.8,1.8-0.8l3.6-23c0,0,4.1-6.9,7.7-8.4s9.9-3.5,14.6-1.3s6,0.2,11.1,9.9H55c0.1,0,0.2,0.1,0.1,0.2
				c-0.3,0.4-0.9,1.2-0.4,1.8c0.6,0.9,1.2,3.1,1.3,4.9c0.1,0.9,0.6,2.4,0.3,3.9c0,0,0.6-0.5,1.6,0.2C60,31,60.4,43,59.5,50
				s-6.3,9.5-6.3,9.5l-5.5,13.3l-0.6,7.9c0,0,0.8,3.9-7.1,3.1c-6.6-0.7-11,2-11.7-0.6c-0.7-2.6-1.3-2.3-4.3-2.5
				C21,80.6,20.5,79.3,18.7,74z"/>
			<path class="st4" d="M28.2,82.7c1.9,1.9,7.9,0.4,11.8,1.2c2.5,0.5-2.8,0.3-2.8,0.3L46.4,73l3.3-8.1l-0.9-22.2
				c0-0.5,0.1-1,0.3-1.4l0.4-0.8l-3.9,0.3c-0.8,0.1-1.7-0.2-2.2-0.8c-0.4-0.5-0.6-1.2-0.5-2c0.3-1.4,1.5-3,2.2-3.9
				c0.3-0.4,0.5-0.9,0.4-1.4l-2-6.6l-1.8-1.6L40.2,32c0,0-3.7,1.2-5.5,1.3c-1.8,0-6.3,3-8,1s1.4-8.5,1.4-8.5l4.1-2.5l-6.3,1.3
				c-0.5,0.1-1.1,0-1.5-0.3c-0.5-0.4-1.2-1.2-1.7-2.5c-0.6-1.6,1.2-5.9,2.2-9.7c-2.8,2.5-5.2,6.5-5.2,6.5l-3.8,22.9
				c0,0-0.5,0.9-1.8,0.8c-1.3-0.1-1.2,1.7-1.1,3.3c0,1.6,4,8.8,4,8.8s0.2,0,0.1,2.4C17,60.9,22,60.5,22,60.5l-3.6,14.7
				C20,81,22,78.3,24.5,80C27.3,81.9,25.7,80.2,28.2,82.7z"/>
			<path class="st5" d="M21.1,40.3l-1.4-8.2c0,0-0.4-4,0.9-4.6s1.3-0.6,1.3-0.6s-2.5-5.7-1.4-10.9c0,0-4.8,5.2-5.6,10.3
				s-1.2,13,0.8,16.8c0,0,1.6-1.7,3.6,1.4"/>
			<path class="st6" d="M18.5,44.6c0,0,4.1,5.5,2.6,7.6c-0.7,0.9,0.2,3.7,0.2,3.7v2.8c0,0,0.8,0.7,2.5,1.1s3.6,3,5.6,5.1
				s10.9,5.1,11.9,5.8c1,0.7,6.4,3,7.8,2.7c1.5-0.3,9.5-4.4,10.4-5.3c0.9-0.9,1.7-9.2,2.1-11c0.4-1.7,0.6-7.7,0.1-9.4
				s-2.1-9.3-2.1-9.3s-0.1,10.3-1.7,12c-1.1,1.1-1.6-2.1-1.8-4.3c-0.1-1-0.8-1.9-1.9-2.2L52,43.4l-8.3-0.5c-0.7-0.1-1.4,0-2,0.3
				l-3.9,1.3c-1,0.5-1.7,1.4-1.9,2.4l-0.7,3l0.4,3c0.3,1.8-1.6,3.1-3.2,2.2l-2.2-1.2c0,0-1.3-5.6-3.7-8.8c-2.4-3.1-5.4-4.8-5.4-4.8"
				/>
			<path class="st2" d="M53.6,48.1c0,0-0.4,3.8-1.7,4.3s-5.4-0.9-7.1-1.6c-1.7-0.6-4.8-3-5.7-2.5c0,0,3.7-1.5,7.8-1
				C51.7,47.8,55.1,43.2,53.6,48.1z"/>
			<path class="st7" d="M59.9,44c0,0,0.6-11.8-1.1-14.1l-1.7-0.7c0,0-0.6-7.3-1.6-8c-0.4-0.3-0.4-0.7-0.2-1.2
				c0.3-0.8,0.3-1.6-0.2-2.3c-1.3-2-3.7-5.5-5.4-7C47.2,8.7,40.3,6,35.2,7s-10.4,3.3-15.8,11.4s-5.7,15.9-3.9,24"/>
			<path class="st6" d="M59.7,21.6c0,0-1.5-0.8-4.3-0.4c-2.5,0.4-4.6,0.5-5.9,1.1c-1,0.5-1.7,1.8-1.7,1.8s-1.2-0.6-2.6-0.5
				s-2.8,1.1-2.8,1.1S41,23,38.9,23c-2.3,0.1-8.6,0.6-10.7,2.1s-3.8,4.2-5.8,6.9s-6,9.1-6,9.1l0.4,1.3l6.1-8.9l4.8-4.9
				c0.6,2.9,1.2,3.8,3.5,4.9c2.3,1.2,7.7-1,9.7-1.3s2-5.3,2-5.3s0.8-0.5,2.2-1s2.8,0.2,2.8,0.2c0.1,1.4,1.8,4.1,3.1,4.6
				c1.2,0.5,4.9-0.5,7.6-1.3C61.4,28.6,59.7,21.6,59.7,21.6z M40.8,30.9c-1.2,0.8-6.9,2.7-8.9,1.9s-3.5-3.3-3.4-4.8
				c0.1-1.6,0-2.2,1.2-2.5c1.3-0.3,2.5-0.5,5-1c1.8-0.3,3.6-1,5-0.3s2,0.7,1.8,1.7C41.4,26.8,42,30.1,40.8,30.9z M58.9,27.8
				c-0.7,0.7-0.7,1-2.7,1.2c-1.9,0.2-3,1.2-4.1,1s-3.2-2.6-3.3-3.9c-0.2-1.3,0.9-2.6,0.9-2.6c0.8-0.6,4.2-1,5.1-1.1
				c0.9-0.1,3.5-1,3.9,0C59,23.4,59.6,27.1,58.9,27.8z"/>
			<path class="st6" d="M40.2,25.3c0,0-2.7-1.5-5.9-1.6s-5.1,0.2-6.1,1.2c-1,1.1-1.9,1.6-1,1.7c0.9,0,4.1-1.4,5.1-1.3
				C33.3,25.4,40.2,25.3,40.2,25.3z"/>
			<path class="st6" d="M37.2,24.2c-0.8-1.3-2.1-1.4-3.2-1.4c-3.2-0.1-6.2,0.6-7.2,1.7s-1.9,1.6-1,1.7c0.9,0,3.3-2.5,5.1-1.3"/>
			<path class="st6" d="M57,18.6c0.4-0.6-2.9-1.6-4.9,0.1c-1.8,1.5-3.7,2.2-3.6,2.6c0.1,0.4,1.5,1.1,2.1,0.4s3.8-2.5,4.8-2.5
				C56.4,19.3,57,18.6,57,18.6z"/>
			<path class="st8" d="M50,26.6c0,0,1-1.2,2.5-1.4s3.3-0.4,3.2,1c-0.1,1-1.1,1.1-2,1.4C52.7,28,51.6,27.7,50,26.6z"/>
			<path class="st9" d="M53.2,25.1c0.4,0.2,0.8,0.5,0.9,1c0.4,1.2-1.6,1.4-1.6,1.4s-0.6,0.3-1.4-0.9c-0.3-0.5-0.2-0.8-0.1-1
				c0,0,0.4-0.2,1-0.3C52.8,25.1,53.2,25.1,53.2,25.1z"/>
			<path class="st10" d="M47.7,25.5c0,0-0.6,2.4,0,3.7c1.1,2.4,2.4,4.6,4.1,6.5c0.7,0.7,2.4,3.8,1.4,5s-0.9,0.8-0.9,0.8"/>
			<path class="st6" d="M52.6,39.6c0,0,0-1.2-1.3-0.5s-2.9,1.9-1.9,2c0.2,0,0.4,0,0.6,0c0.6,0,1.3-0.4,1.5-0.9
				c0.1-0.2,0.3-0.4,0.5-0.4C52.4,39.8,52.6,39.6,52.6,39.6z"/>
			<path class="st6" d="M47.7,41.1c0.4-0.1,1-0.6-0.9-0.9c-1.9-0.3-2.1-0.1-2.8,0.4s-1,1.2-0.2,1.2c0.5,0,1.7-0.4,2.3-0.7
				c0.2-0.1,0.4-0.1,0.6-0.1C46.7,41.1,47.3,41.2,47.7,41.1z"/>
			<path class="st10" d="M42,37c0,0-2,2.1-1.6,3.4c0.4,1.4,0.6,1.1,2.3,2.3"/>
			<path class="st10" d="M19.3,47c0,0-2.9-3.2-4.5-2.6c-1.5,0.6-1.3,0.9-1,1.9"/>
			<path class="st10" d="M16.7,45.1c0,0-1.1,2.3-0.5,4.1c0.6,1.8,0.4,2.6,0.4,2.6s0.9-2,1.5-2.9"/>
			<path class="st11" d="M20.5,60.5c0,0-1.1,1.6-2,1.7s-2-0.8-1.7-3.2c0.3-2.4,2.5-1.6,2.5-0.9"/>
			<path class="st7" d="M18.7,65.1"/>
			<path class="st12" d="M30.2,20.3c-0.1,0.4-0.6,1.1-2,1.1c-1,0-3.2,0.6-1.6,1s2-0.6,3.6-0.5s0.5-2.6,1.3-3.6
				c0.7-0.9-1-4.2-1.1-4.8c-0.3-1.3,1.3-3.1,1.3-3.1L30,11.6c-1.3,2.4,0.1,3.9,0.4,5"/>
			<path class="st13" d="M18.8,44.3c0,0-3.2-3-5.1-1.5s0,4.8,0,4.8s0.6,1.8,1.4,2.8c0.7,1,2.3,3.8,2.3,3.8s-0.6,2.2-0.2,3.2
				c0.3,1,1.7,3.2,3.4,3c1.6-0.2,1.6-0.7,1.6-0.7l-5.5,23l29.5,1.2l1.7-11"/>
			<path class="st14" d="M57.4,22.3l0.9,0.3c0,0,0.2,0.3,0.4,1.4s-0.1,2.7-0.1,2.7l-0.8,0.5c0,0-0.1-2.5-0.1-3.3
				S57.4,22.3,57.4,22.3z"/>
			<g>
				<g>
					<path class="st15" d="M36.9,59.5c0.5,0.1,1,0.3,1.4,0.6C38,59.8,37.5,59.5,36.9,59.5z"/>
					<path class="st6" d="M36.9,59.5c0.5,0.1,1,0.3,1.4,0.6C38,59.8,37.5,59.5,36.9,59.5L36.9,59.5z"/>
				</g>
				<g>
					<path class="st15" d="M57.7,51.4c0.4,0,0.7,0,1.1,0c0.8,0,1.6,0.1,2.4,0.2c0,0.3,0,0.5,0,0.8L57.7,51.4z"/>
					<g>
						<path class="st15" d="M58.8,51.4c0.8,0,1.5,0.1,2.3,0.2c0,0.2,0,0.4,0,0.5l-1.8-0.5l-0.8-0.2C58.6,51.4,58.7,51.4,58.8,51.4
							 M58.8,51.2c-0.6,0-1.1,0-1.7,0.1c1.4,0.4,2.8,0.8,4.2,1.2c0-0.3,0-0.7,0-1C60.5,51.3,59.6,51.2,58.8,51.2L58.8,51.2z"/>
					</g>
				</g>
				<path class="st5" d="M60.9,56.9c0.1-0.4,0.2-0.9,0.2-1.6l0,0c-1.5-0.4-3-1.1-4.3-2c0.4,1,1.4,1.4,2.3,1.9
					c0.9,0.5,1.7,1.5,1.3,2.4c-0.5,0.9-1.6,0.2-2.5-0.4c-1.5-1-2.9-2.2-2.9-4c-1.1,0.3-1.3,1.9-0.7,2.9s1.6,1.6,2.4,2.5
					c2.2,2.4,1.9,7-1.1,8.3c-1.1-0.6-0.1-1.7,0.5-2.7c0.5-1.1-0.4-3.8-0.5-5c-1.9-3.9-3.6-3.3-5-5.8c-0.6,1.8,0.9,3.4,2,5
					c2.3,3.1,1.9,4.2-0.3,11c-1,0.1-1.8-1.1-1.7-2.1s0.1-2.1,0.7-2.9s1.3-1.5,1.3-2.6c0.1-2-1.3-3.3-3.1-3.9c-1.8-0.7-4-1.3-4.8-3.1
					c-0.2,1.5,1.3,2.9,2.6,3.4c2.4,1.1,3.9,2.5,2.4,4.7c-0.7-0.9-1.8,1-1.5,2.2c0.1,0.3,0.3,0.6,0.5,0.9c0.7,1.3,0.1,3-1.1,3.7
					c-1.3,0.7-3,0.1-3.7-1.1c0.8-1.3,2.3-2.5,2.3-4c-0.3-1.6,0.2-1.7-0.1-2.8c-0.3-1.1-2.3-2.1-3.2-2.8c-0.9-0.7-1.7-1.4-3.4-3.2
					c0,1.7,3,4.8,3.8,5.6s1.3,2.1,0.9,3.2c-0.4,1.1-1.8,1.8-2.8,1.2c-1.1-0.7-1.1-2.3-1.5-3.5c-0.3-0.7-0.8-1.3-1.4-1.8
					c0.6,0.6,0.9,1.6,0.6,2.4c-0.5,1.3-2.5,1.9-3.6,0.9c-0.9-0.8-1.1-2.1-1.4-3.2s-1-2.4-2.2-2.4c1,0.7,1.3,2.3,0.5,3.2
					c-2.4-0.4-1.1-5.3-3.5-6c-0.7,0.1-0.6,1.1-0.2,1.7c0.4,0.5,0.9,1.3,0.5,1.8c-0.3,0.4-1,0.3-1.3-0.1c-0.4-0.4-0.4-2.4-0.5-2.9
					c-0.3-1.5-0.2-2.4-0.5-3.9c-0.8,0-1.2,2.2-0.7,2.8c0.4,0.7,0.5,1.9-0.3,1.8c-0.5-0.3-0.7-4.1-0.3-5.7c0.4-1.5-0.3-7.1-5.2-10.3
					c-1,0-4.5,1.2-1.3,3.4c1.6,1.2,3.2,6,3.2,7.3c0,1.1-0.6,2-0.5,3c0.1,1.8,0.2,3.3,0.3,4.1c0,0.1,0.5,0.1,0.5,0.2
					c0.4,0.2,1,0.7,1.9,0.9c1.7,0.4,3.5,2.9,5.5,5c1.9,2.1,10.6,5,11.6,5.6c0.9,0.7,6.2,2.9,7.6,2.6c1.4-0.3,8.9-4,9.8-4.9
					C59.8,66.7,60.5,58.6,60.9,56.9z"/>
			</g>
			<path class="st16" d="M32.9,28.8c1.6,0.8,5.8-0.3,5.8-0.3s-2.6,0.1-4.1,0.2c-1.5,0.2-2.4,0.1-2.4,0.1"/>
			<path class="st6" d="M31.2,29.5c0,0-0.9-2.6,6.1-0.7c0,0-3.1,0-4.4,0C31.6,28.8,31.2,29.5,31.2,29.5z"/>
			<path class="st17" d="M37.9,29.6c-2.1,0.9-3.7,1-4.4,0.9c-0.8-0.1-1.3-0.9-1.3-0.9s-0.6,0-0.8,0.5"/>
			<path class="st18" d="M31.6,40.5c0,0-1.7,3.3-1.5,5.4c0.3,2,0.8,4.3,0.8,4.3"/>
			<path class="st18" d="M30.6,34.6c0,0-2.6,4.9-2.9,7.5"/>
			<path class="st18" d="M37.1,44c0,0-3.6,0.1-3.6,7"/>
			<path class="st18" d="M36,40.5c0,0-3.2,1.6-3.7,5"/>
			<path class="st19" d="M28,25.5c0,0,0,1.8,1.6,2.2c1.6,0.4,1.5,1,3,0.8c1.6-0.2,5.2,0.2,5.2,0.2s4.3-2.9,1.5-3.5s-5.4-1.4-7.2-0.9
				C30.4,24.8,28,25.5,28,25.5z"/>
			<path class="st14" d="M39.1,24.6l1.7,0.5c0,0,0.4,0.5,0.3,1.4c-0.1,1-0.6,3.3-0.6,3.3L39.2,30c0,0,0.2-2.5,0.2-3.5
				C39.5,25.5,39.1,24.6,39.1,24.6z"/>
		</g>
	</g>
</g>
<circle class="st6" cx="52.5" cy="26.2" r="0.7"/>
<polygon class="st2" points="53.4,26.9 52.5,26.1 52.2,26.2 52.8,27.2 "/>
<path class="st0" d="M54.2,26.1"/>
<path class="st20" d="M40.8,30.9c-1.2,0.8-6.9,2.7-8.9,1.9s-3.5-3.3-3.4-4.8s0-2.2,1.2-2.5s2.5-0.5,5-1c1.8-0.3,3.6-1,5-0.3
	s2,0.7,1.8,1.7C41.4,26.9,41.9,30.2,40.8,30.9z"/>
<path class="st20" d="M58.9,27.9c-0.7,0.7-0.7,1-2.7,1.2c-1.9,0.2-3,1.2-4.1,1s-3.2-2.6-3.3-3.9c-0.2-1.3,0.9-2.6,0.9-2.6
	c0.8-0.6,4.2-1,5.1-1.1c0.9-0.1,3.5-1,3.9,0C58.9,23.4,59.6,27.1,58.9,27.9z"/>
<g>
	<path class="st21" d="M69.1,31.2c-0.7-1-1.4-0.2-1.4-0.2s0.1-0.8-0.5-1.5c-0.6-0.8-1.8-0.3-1.8-0.3l-14,19.2c0,0.5,0,0.8,0.1,1"/>
	<path class="st22" d="M51.5,49.4c0.3,0.6,1.1,0.1,1.1,0.1l16.8-16.3c0,0,0.8-0.6-0.3-0.8c-0.5-0.1,0.7-0.2,0-1.2"/>
	<path class="st6" d="M51.5,49.5c0.3,0.3,0.5,0,0.8,0l17.1-17.7c0-0.2-0.1-0.4-0.2-0.6c-0.7-1-1.4-0.2-1.4-0.2s0-0.1,0-0.3
		L51.5,49.5z"/>
	<path class="st3" d="M65.4,29.2c0,0,0.6,0,1.2,0.8s0.1,2,0.1,2s0.9-1,1.8-0.1c0.6,0.6,0.2,0.8,0.2,0.8s1.2-0.3,0.8,0.6s2.9-7,2.9-7
		L65.4,29.2z"/>
	<path class="st23" d="M71.8,26.5l-6.4,2.7l-14,19.2c0,0-0.1,0.1-0.1,0.4c0,0.8,0.5,0.7,1,0.7c0.2,0,0.4-0.1,0.6-0.3
		c2.2-2.1,16.6-16.1,16.6-16.1s2-4.7,2.6-6.4C72.2,26.6,72,26.4,71.8,26.5z"/>
	<path class="st24" d="M71.5,27.2L68,31.6c0.2,0.1,0.3,0.1,0.5,0.3c0.6,0.6,0.2,0.8,0.2,0.8s0.8-0.2,0.9,0.2l2.2-5.2L71.5,27.2z"/>
	<path class="st6" d="M71.5,28.4c0-0.1,0.1-0.1,0.1-0.2l0.8-2L70.3,27l0,0c-0.1,0-0.1,0.1-0.2,0.1c-0.4,0.3-0.5,0.9-0.1,1.3
		c0.3,0.4,0.9,0.5,1.3,0.1C71.3,28.6,71.3,28.5,71.5,28.4L71.5,28.4L71.5,28.4z"/>
</g>
<ellipse transform="matrix(0.866 -0.5 0.5 0.866 -12.3742 29.4223)" class="st3" cx="48.7" cy="37.8" rx="2.8" ry="3.2"/>
<path class="st12" d="M47.7,32.1c0,0,1.5,2.1,2.3,3.2c0.8,1.2,1.8,2.7,0.6,3.4s-2.4-0.9-2-1.5s1.2-0.9,0.4-2.1
	C48.2,34,47.7,32.1,47.7,32.1z"/>
<path class="st19" d="M55.1,18.8c0,0-3.4,1-4.5,2.1c-1.2,1.1-1.4,2.2-1.8,2.8c-0.5,0.6,0,2.9,0,2.9h1.3c0,0,2.4-2.9,4.1-3
	c1.7-0.2,1.9-0.9,1.9-0.9l-1.4-2.1L55.1,18.8z"/>
</svg>
