<?xml version="1.0" encoding="utf-8"?>
<!-- Generator: Adobe Illustrator 22.1.0, SVG Export Plug-In . SVG Version: 6.00 Build 0)  -->
<svg version="1.1" id="Calque_1" xmlns="http://www.w3.org/2000/svg" xmlns:xlink="http://www.w3.org/1999/xlink" x="0px" y="0px"
	 viewBox="0 0 82.4 109.9" style="enable-background:new 0 0 82.4 109.9;" xml:space="preserve">
<metadata><?xpacket begin="﻿" id="W5M0MpCehiHzreSzNTczkc9d"?>
<x:xmpmeta xmlns:x="adobe:ns:meta/" x:xmptk="Adobe XMP Core 5.6-c143 79.161356, 2017/09/07-01:11:22        ">
   <rdf:RDF xmlns:rdf="http://www.w3.org/1999/02/22-rdf-syntax-ns#">
      <rdf:Description rdf:about=""
            xmlns:ExtensisFontSense="http://www.extensis.com/meta/FontSense/">
         <ExtensisFontSense:slug>
            <rdf:Bag>
               <rdf:li>
                  <rdf:Description>
                     <ExtensisFontSense:Family>Altobello DEMO</ExtensisFontSense:Family>
                     <ExtensisFontSense:Version>1.000</ExtensisFontSense:Version>
                     <ExtensisFontSense:OutlineFileSize>0</ExtensisFontSense:OutlineFileSize>
                     <ExtensisFontSense:Foundry>--</ExtensisFontSense:Foundry>
                     <ExtensisFontSense:FontKind>OpenType - PS</ExtensisFontSense:FontKind>
                     <ExtensisFontSense:Checksum>2517049892</ExtensisFontSense:Checksum>
                     <ExtensisFontSense:PostScriptName>AltobelloDEMO-Regular</ExtensisFontSense:PostScriptName>
                     <ExtensisFontSense:FontSense_1.2_Checksum>2517049892</ExtensisFontSense:FontSense_1.2_Checksum>
                  </rdf:Description>
               </rdf:li>
            </rdf:Bag>
         </ExtensisFontSense:slug>
      </rdf:Description>
   </rdf:RDF>
</x:xmpmeta>
                                                                                                    
                                                                                                    
                                                                                                    
                                                                                                    
                                                                                                    
                                                                                                    
                                                                                                    
                                                                                                    
                                                                                                    
                                                                                                    
                                                                                                    
                                                                                                    
                                                                                                    
                                                                                                    
                                                                                                    
                                                                                                    
                                                                                                    
                                                                                                    
                                                                                                    
                                                                                                    
                           
<?xpacket end="w"?></metadata>
<style type="text/css">
	.st0{fill:#FFFFFF;stroke:#004362;stroke-width:3;stroke-miterlimit:10;}
	.st1{font-family:'AltobelloDEMO-Regular';}
	.st2{font-size:20.8948px;}
	.st3{fill:#FFFFFF;}
	.st4{fill:#004362;}
	.st5{clip-path:url(#SVGID_2_);}
	.st6{fill:#FACC9E;}
	.st7{fill:#CA9E64;}
	.st8{fill:#666769;}
	.st9{fill:none;stroke:#000000;stroke-width:1.193;stroke-miterlimit:10;}
	.st10{fill:#FFFFFF;stroke:#000000;stroke-width:0.7353;stroke-miterlimit:10;}
	.st11{fill:#50C2EC;stroke:#000000;stroke-width:0.5884;stroke-miterlimit:10;}
	.st12{fill:none;stroke:#000000;stroke-width:0.5965;stroke-linecap:round;stroke-miterlimit:10;}
	.st13{fill:none;stroke:#000000;stroke-width:1.193;stroke-linecap:round;stroke-miterlimit:10;}
	.st14{opacity:0.5;fill:#FFFFFF;}
	.st15{opacity:0.8;fill:#FFFFFF;}
	.st16{fill:#828385;}
	.st17{fill:none;stroke:#000000;stroke-width:0.5965;stroke-miterlimit:5;}
	.st18{opacity:0.25;fill:none;stroke:#CA9E64;stroke-width:0.5965;stroke-miterlimit:10;}
	.st19{opacity:0.25;fill:none;stroke:#CA9E64;stroke-width:0.8947;stroke-miterlimit:10;}
	.st20{opacity:0.25;fill:#CA9E64;}
	.st21{opacity:0.1;fill:#FFFFFF;}
	.st22{fill:#FBBC00;}
	.st23{fill:none;stroke:#000000;stroke-width:0.8;stroke-miterlimit:10;}
	.st24{fill:#CFD1D2;}
</style>
<g>
	<g>
		<text transform="matrix(1 0 0 1 9.1792 18.7069)" class="st0 st1 st2">Graphiste</text>
	</g>
	<text transform="matrix(1 0 0 1 9.1792 18.7069)" class="st3 st1 st2">Graphiste</text>
</g>
<ellipse transform="matrix(9.853765e-02 -0.9951 0.9951 9.853765e-02 -25.3916 93.1595)" class="st4" cx="38.7" cy="60.6" rx="36.9" ry="36.9"/>
<g>
	<defs>
		<path id="SVGID_1_" d="M73.8,60.6c0,19.4-15.7,35.1-35.1,35.1S3.7,80,3.7,60.6S19.4,8.4,38.7,8.4S73.8,41.2,73.8,60.6z"/>
	</defs>
	<clipPath id="SVGID_2_">
		<use xlink:href="#SVGID_1_"  style="overflow:visible;"/>
	</clipPath>
	<g class="st5">
		<path class="st3" d="M31.9,20.7c0,0,8.8-1,13.6,2.9c3,2.5,6.7,8.7,6.7,8.7L54.4,43l-8.3,1.6L31.9,20.7z"/>
		<path class="st6" d="M16.1,87.8l3.1-13.3c0,0-4.7-1.4-4.7-3.8c0-2.4-0.1-2.7-0.1-2.7s-4-7.2-4-8.8c0-1.6-0.2-3.4,1.1-3.3
			s1.8-0.8,1.8-0.8l3.6-23c0,0,4.1-6.9,7.7-8.4s9.9-3.5,14.6-1.3s6,0.2,11.1,9.9l2.1,0c0.1,0,0.2,0.1,0.1,0.2
			c-0.3,0.4-0.9,1.2-0.4,1.8c0.6,0.9,1.2,3.1,1.3,4.9c0.1,0.9,0.6,2.4,0.3,3.9c0,0,0.6-0.5,1.6,0.2c2.1,1.5,2.5,13.5,1.6,20.5
			c-0.9,7-6.3,9.5-6.3,9.5l-5.5,13.3l-0.6,7.9c0,0,0.8,3.9-7.1,3.1c-6.6-0.7-9.1,0.6-9.8-2c-0.7-2.6-3.2-0.9-6.2-1.1
			C18.5,94.4,17.9,93.1,16.1,87.8z"/>
		<path class="st7" d="M27.6,95.7c1.9,1.9,5.9,1.2,9.8,2c2.5,0.5-1.3-2.1-1.3-2.1l7.7-8.8l3.3-8.1l-0.9-22.2c0-0.5,0.1-1,0.3-1.4
			l0.4-0.8L43,54.5c-0.8,0.1-1.7-0.2-2.2-0.8c-0.4-0.5-0.6-1.2-0.5-2c0.3-1.4,1.5-3,2.2-3.9c0.3-0.4,0.5-0.9,0.4-1.4l-2-6.6
			l-1.8-1.6l-1.5,7.5c0,0-3.7,1.2-5.5,1.3c-1.8,0-6.3,3-8,1c-1.7-2,1.4-8.5,1.4-8.5l4.1-2.5l-6.3,1.3c-0.5,0.1-1.1,0-1.5-0.3
			c-0.5-0.4-1.2-1.2-1.7-2.5c-0.6-1.6,1.2-5.9,2.2-9.7c-2.8,2.5-5.2,6.5-5.2,6.5l-3.8,22.9c0,0-0.5,0.9-1.8,0.8
			c-1.3-0.1-1.2,1.7-1.1,3.3c0,1.6,4,8.8,4,8.8s0.2,0,0.1,2.4c-0.1,4.1,4.9,3.7,4.9,3.7L15.8,89c1.6,5.8,3.6,3.1,6.1,4.8
			C24.7,95.7,25.1,93.2,27.6,95.7z"/>
		<path class="st8" d="M18.6,54.1L17.2,46c0,0-0.4-4,0.9-4.6c1.3-0.6,1.3-0.6,1.3-0.6s-2.5-5.7-1.4-10.9c0,0-4.8,5.2-5.6,10.3
			c-0.8,5.1-1.2,13,0.8,16.8c0,0,1.6-1.7,3.6,1.4"/>
		<path d="M15.9,58.4c0,0,4.1,5.5,2.6,7.6c-0.7,0.9,0.2,3.7,0.2,3.7l0,2.8c0,0,0.8,0.7,2.5,1.1c1.7,0.4,3.6,3,5.6,5.1
			c2,2.1,10.9,5.1,11.9,5.8c1,0.7,6.4,3,7.8,2.7c1.5-0.3,9.5-4.4,10.4-5.3c0.9-0.9,1.7-9.2,2.1-11c0.4-1.7,0.6-7.7,0.1-9.4
			c-0.5-1.7-2.1-9.3-2.1-9.3s-0.1,10.3-1.7,12c-1.1,1.1-1.6-2.1-1.8-4.3c-0.1-1-0.8-1.9-1.9-2.2l-2.2-0.5l-8.3-0.5
			c-0.7-0.1-1.4,0-2,0.3l-3.9,1.3c-1,0.5-1.7,1.4-1.9,2.4l-0.7,3l0.4,3c0.3,1.8-1.6,3.1-3.2,2.2l-2.2-1.2c0,0-1.3-5.6-3.7-8.8
			s-5.4-4.8-5.4-4.8"/>
		<path class="st3" d="M51.1,61.9c0,0-0.4,3.8-1.7,4.3c-1.3,0.5-5.4-0.9-7.1-1.6c-1.7-0.6-4.8-3-5.7-2.5c0,0,3.7-1.5,7.8-1
			C49.1,61.6,52.6,57,51.1,61.9z"/>
		<path class="st9" d="M57.3,57.7c0,0,0.6-11.8-1.1-14.1L54.4,43c0,0-0.6-7.3-1.6-8c-0.4-0.3-0.4-0.7-0.2-1.2
			c0.3-0.8,0.3-1.6-0.2-2.3c-1.3-2-3.7-5.5-5.4-7c-2.5-2-9.4-4.7-14.5-3.7c-5.1,1-10.2,3.2-15.7,11.3s-5.7,15.9-3.9,24"/>
		<path d="M57.1,35.4c0,0-1.5-0.8-4.3-0.4c-2.5,0.4-4.6,0.5-5.9,1.1c-1,0.5-1.7,1.8-1.7,1.8s-1.2-0.6-2.6-0.5s-2.8,1.1-2.8,1.1
			s-1.4-1.7-3.5-1.7C34,37,27.7,37.5,25.6,39c-2.1,1.5-3.8,4.2-5.8,6.9s-6,9.1-6,9.1l0.4,1.3l6.1-8.9l4.8-4.9
			c0.6,2.9,1.2,3.8,3.5,4.9c2.3,1.2,7.7-1,9.7-1.3c2-0.3,2-5.3,2-5.3s0.8-0.5,2.2-1c1.4-0.5,2.8,0.2,2.8,0.2
			c0.1,1.4,1.8,4.1,3.1,4.6c1.2,0.5,4.9-0.5,7.6-1.3C58.8,42.4,57.1,35.4,57.1,35.4z M38.2,44.7c-1.2,0.8-6.9,2.7-8.9,1.9
			c-2-0.8-3.5-3.3-3.4-4.8c0.1-1.6,0-2.2,1.2-2.5c1.3-0.3,2.5-0.5,5-1c1.8-0.3,3.6-1,5-0.3c1.4,0.7,2,0.7,1.8,1.7
			C38.9,40.6,39.4,43.9,38.2,44.7z M56.4,41.6c-0.7,0.7-0.7,1-2.7,1.2c-1.9,0.2-3,1.2-4.1,1c-1.1-0.2-3.2-2.6-3.3-3.9
			c-0.2-1.3,0.9-2.6,0.9-2.6c0.8-0.6,4.2-1,5.1-1.1c0.9-0.1,3.5-1,3.9,0C56.4,37.2,57.1,40.9,56.4,41.6z"/>
		<path d="M37.6,39.1c0,0-2.7-1.5-5.9-1.6s-5.1,0.2-6.1,1.2c-1,1.1-1.9,1.6-1,1.7c0.9,0,4.1-1.4,5.1-1.3
			C30.7,39.2,37.6,39.1,37.6,39.1z"/>
		<path d="M34.6,38c-0.8-1.3-2.1-1.4-3.2-1.4c-3.2-0.1-6.2,0.6-7.2,1.7c-1,1.1-1.9,1.6-1,1.7s3.3-2.5,5.1-1.3"/>
		<path d="M54.4,32.4c0.4-0.6-2.9-1.6-4.9,0.1c-1.8,1.5-3.7,2.2-3.6,2.6s1.5,1.1,2.1,0.4c0.6-0.7,3.8-2.5,4.8-2.5
			C53.8,33.1,54.4,32.4,54.4,32.4z"/>
		<path class="st10" d="M47.5,40.4c0,0,1-1.2,2.5-1.4c1.5-0.2,3.3-0.4,3.2,1c-0.1,1-1.1,1.1-2,1.4C50.2,41.8,49,41.5,47.5,40.4z"/>
		<path class="st11" d="M50.7,38.9c0.4,0.2,0.8,0.5,0.9,1c0.4,1.2-1.6,1.4-1.6,1.4s-0.6,0.3-1.4-0.9c-0.3-0.5-0.2-0.8-0.1-1
			c0,0,0.4-0.2,1-0.3C50.2,38.9,50.7,38.9,50.7,38.9z"/>
		<path class="st12" d="M45.2,39.3c0,0-0.6,2.4,0,3.7c1.1,2.4,2.4,4.6,4.1,6.5c0.7,0.7,2.4,3.8,1.4,5s-0.9,0.8-0.9,0.8"/>
		<path d="M50.1,53.4c0,0,0-1.2-1.3-0.5s-2.9,1.9-1.9,2c0.2,0,0.4,0,0.6,0c0.6,0,1.3-0.4,1.5-0.9c0.1-0.2,0.3-0.4,0.5-0.4
			C49.9,53.6,50.1,53.4,50.1,53.4z"/>
		<path d="M45.2,54.9c0.4-0.1,1-0.6-0.9-0.9c-1.9-0.3-2.1-0.1-2.8,0.4c-0.7,0.5-1,1.2-0.2,1.2c0.5,0,1.7-0.4,2.3-0.7
			c0.2-0.1,0.4-0.1,0.6-0.1C44.2,54.9,44.8,55,45.2,54.9z"/>
		<path class="st12" d="M39.5,50.8c0,0-2,2.1-1.6,3.4c0.4,1.4,0.6,1.1,2.3,2.3"/>
		<path class="st12" d="M16.7,60.8c0,0-2.9-3.2-4.5-2.6c-1.5,0.6-1.3,0.9-1,1.9"/>
		<path class="st12" d="M14.2,58.9c0,0-1.1,2.3-0.5,4.1s0.4,2.6,0.4,2.6s0.9-2,1.5-2.9"/>
		<path class="st13" d="M18,74.3c0,0-1.1,1.6-2,1.7c-0.9,0.1-2-0.8-1.7-3.2s2.5-1.6,2.5-0.9"/>
		<path class="st9" d="M16.1,78.9"/>
		<path class="st14" d="M27.6,34.1c-0.1,0.4-0.6,1.1-2,1.1c-1,0-3.2,0.6-1.6,1c1.6,0.4,2-0.6,3.6-0.5c1.6,0.1,0.5-2.6,1.3-3.6
			c0.7-0.9-1-4.2-1.1-4.8c-0.3-1.3,1.3-3.1,1.3-3.1l-1.6,1.2c-1.3,2.4,0.1,3.9,0.4,5"/>
		<path class="st9" d="M16.3,58.1c0,0-3.2-3-5.1-1.5s0,4.8,0,4.8s0.6,1.8,1.4,2.8c0.7,1,2.3,3.8,2.3,3.8s-0.6,2.2-0.2,3.2
			s1.7,3.2,3.4,3c1.6-0.2,1.6-0.7,1.6-0.7L15.1,92l28.4,5.7l1.7-11"/>
		<path class="st15" d="M54.9,36.1l0.9,0.3c0,0,0.2,0.3,0.4,1.4c0.2,1.1-0.1,2.7-0.1,2.7L55.3,41c0,0-0.1-2.5-0.1-3.3
			S54.9,36.1,54.9,36.1z"/>
		<g>
			<g>
				<path class="st16" d="M34.3,73.3c0.5,0.1,1,0.3,1.4,0.6C35.4,73.6,34.9,73.3,34.3,73.3z"/>
				<path d="M34.3,73.3c0.5,0.1,1,0.3,1.4,0.6C35.4,73.6,34.9,73.3,34.3,73.3L34.3,73.3z"/>
			</g>
			<g>
				<path class="st16" d="M55.2,65.2c0.4,0,0.7,0,1.1,0c0.8,0,1.6,0.1,2.4,0.2c0,0.3,0,0.5,0,0.8L55.2,65.2z"/>
				<g>
					<path class="st16" d="M56.2,65.2c0.8,0,1.5,0.1,2.3,0.2c0,0.2,0,0.4,0,0.5l-1.7-0.5l-0.9-0.3C56,65.2,56.1,65.2,56.2,65.2
						 M56.2,65c-0.6,0-1.1,0-1.7,0.1c1.4,0.4,2.8,0.8,4.2,1.2c0-0.3,0-0.7,0-1C57.9,65.1,57.1,65,56.2,65L56.2,65z"/>
				</g>
			</g>
			<path class="st8" d="M58.4,70.7c0.1-0.4,0.2-0.9,0.2-1.6c0,0,0,0,0,0c-1.5-0.4-3-1.1-4.3-2c0.4,1,1.4,1.4,2.3,1.9
				c0.9,0.5,1.7,1.5,1.3,2.4c-0.5,0.9-1.6,0.2-2.5-0.4c-1.5-1-2.9-2.2-2.9-4c-1.1,0.3-1.3,1.9-0.7,2.9c0.6,1,1.6,1.6,2.4,2.5
				c2.2,2.4,1.9,7-1.1,8.3C52,80,53,78.9,53.5,77.8c0.5-1.1-0.4-3.8-0.5-5c-1.9-3.9-3.6-3.3-5-5.8c-0.6,1.8,0.9,3.4,2,5
				c2.3,3.1,1.9,4.2-0.3,11c-1,0.1-1.8-1.1-1.7-2.1c0.1-1,0.1-2.1,0.7-2.9s1.3-1.5,1.3-2.6c0.1-2-1.3-3.3-3.1-3.9
				c-1.8-0.7-4-1.3-4.8-3.1c-0.2,1.5,1.3,2.9,2.6,3.4c2.4,1.1,3.9,2.5,2.4,4.7c-0.7-0.9-1.8,1-1.5,2.2c0.1,0.3,0.3,0.6,0.5,0.9
				c0.7,1.3,0.1,3-1.1,3.7c-1.3,0.7-3,0.1-3.7-1.1c0.8-1.3,2.3-2.5,2.3-4c-0.3-1.6,0.2-1.7-0.1-2.8c-0.3-1.1-2.3-2.1-3.2-2.8
				c-0.9-0.7-1.7-1.4-3.4-3.2c0,1.7,3,4.8,3.8,5.6c0.8,0.8,1.3,2.1,0.9,3.2c-0.4,1.1-1.8,1.8-2.8,1.2c-1.1-0.7-1.1-2.3-1.5-3.5
				C37,75,36.4,74.4,35.8,74c0.6,0.6,0.9,1.6,0.6,2.4c-0.5,1.3-2.5,1.9-3.6,0.9c-0.9-0.8-1.1-2.1-1.4-3.2s-1-2.4-2.2-2.4
				c1,0.7,1.3,2.3,0.5,3.2c-2.4-0.4-1.1-5.3-3.5-6c-0.7,0.1-0.6,1.1-0.2,1.7c0.4,0.5,0.9,1.3,0.5,1.8c-0.3,0.4-1,0.3-1.3-0.1
				c-0.4-0.4-0.4-2.4-0.5-2.9c-0.3-1.5-0.2-2.4-0.5-3.9c-0.8,0-1.2,2.2-0.7,2.8s0.5,1.9-0.3,1.8c-0.5-0.3-0.7-4.1-0.3-5.7
				c0.4-1.5-0.3-7.1-5.2-10.3c-1,0-4.5,1.2-1.3,3.4c1.6,1.2,3.2,6,3.2,7.3c0,1.1-0.6,2-0.5,3c0.1,1.8,0.2,3.3,0.3,4.1
				c0,0.1,0.5,0.1,0.5,0.2c0.4,0.2,1,0.7,1.9,0.9c1.7,0.4,3.5,2.9,5.5,5c1.9,2.1,10.6,5,11.6,5.6c0.9,0.7,6.2,2.9,7.6,2.6
				c1.4-0.3,8.9-4,9.8-4.9C57.2,80.5,57.9,72.4,58.4,70.7z"/>
		</g>
		<path class="st17" d="M30.4,42.6c1.6,0.8,5.8-0.3,5.8-0.3s-2.6,0.1-4.1,0.2c-1.5,0.2-2.4,0.1-2.4,0.1"/>
		<path d="M28.7,43.3c0,0-0.9-2.6,6.1-0.7c0,0-3.1,0-4.4,0C29,42.7,28.7,43.3,28.7,43.3z"/>
		<path class="st18" d="M35.4,43.4c-2.1,0.9-3.7,1-4.4,0.9c-0.8-0.1-1.3-0.9-1.3-0.9s-0.6,0-0.8,0.5"/>
		<path class="st19" d="M29.1,54.3c0,0-1.7,3.3-1.5,5.4c0.3,2,0.8,4.3,0.8,4.3"/>
		<path class="st19" d="M28,48.4c0,0-2.6,4.9-2.9,7.5"/>
		<path class="st19" d="M34.6,57.8c0,0-3.6,0.1-3.6,7"/>
		<path class="st19" d="M33.4,54.3c0,0-3.2,1.6-3.7,5"/>
		<path class="st20" d="M25.5,39.3c0,0,0,1.8,1.6,2.2s1.5,1,3,0.8c1.6-0.2,5.2,0.2,5.2,0.2s4.3-2.9,1.5-3.5
			c-2.8-0.6-5.4-1.4-7.2-0.9C27.9,38.6,25.5,39.3,25.5,39.3z"/>
		<path class="st15" d="M36.6,38.4l1.7,0.5c0,0,0.4,0.5,0.3,1.4c-0.1,1-0.6,3.3-0.6,3.3l-1.3,0.2c0,0,0.2-2.5,0.2-3.5
			S36.6,38.4,36.6,38.4z"/>
	</g>
</g>
<g>
	<text transform="matrix(1 0 0 1 2.164 98.9323)" class="st0 st1 st2">Illustrateur</text>
	<g>
		<text transform="matrix(1 0 0 1 2.164 98.9323)" class="st3 st1 st2">Illustrateur</text>
	</g>
</g>
<circle cx="49.9" cy="40" r="0.7"/>
<polygon class="st3" points="50.8,40.7 50,39.9 49.6,40 50.2,41 "/>
<path class="st4" d="M51.6,39.9"/>
<path class="st21" d="M38.2,44.7c-1.2,0.8-6.9,2.7-8.9,1.9c-2-0.8-3.5-3.3-3.4-4.8s0-2.2,1.2-2.5s2.5-0.5,5-1c1.8-0.3,3.6-1,5-0.3
	c1.4,0.7,2,0.7,1.8,1.7C38.8,40.7,39.4,44,38.2,44.7z"/>
<path class="st21" d="M56.3,41.7c-0.7,0.7-0.7,1-2.7,1.2c-1.9,0.2-3,1.2-4.1,1c-1.1-0.2-3.2-2.6-3.3-3.9c-0.2-1.3,0.9-2.6,0.9-2.6
	c0.8-0.6,4.2-1,5.1-1.1s3.5-1,3.9,0C56.4,37.2,57,40.9,56.3,41.7z"/>
<g>
	<path class="st22" d="M70.6,41.5c-0.8-1.2-1.7-0.2-1.7-0.2s0.1-0.9-0.6-1.8c-0.7-0.9-2-0.4-2-0.4L50,61.4c-0.2,2.2,1.4,1.3,1.4,1.3
		L71,43.8c0,0,1-0.7-0.3-0.9C70,42.8,71.4,42.7,70.6,41.5z"/>
	<path d="M50.2,62.6c0.4,0.4,0.6,0,0.9,0l19.8-20.5c0-0.2-0.1-0.4-0.3-0.7c-0.8-1.2-1.7-0.2-1.7-0.2s0-0.1,0-0.3L50.2,62.6z"/>
	<path class="st6" d="M66.3,39.1c0,0,0.6,0,1.3,0.9c0.7,0.9,0.1,2.3,0.1,2.3s1.1-1.2,2.1-0.2c0.7,0.7,0.2,1,0.2,1s1.4-0.3,0.9,0.7
		c-0.5,1,3.3-8.1,3.3-8.1L66.3,39.1z"/>
	<path class="st23" d="M73.7,36l-7.4,3.1L50,61.4c0,0-0.1,0.2-0.1,0.5c0,1,0.6,0.8,1.2,0.8c0.2,0,0.5-0.1,0.7-0.4
		C54.3,59.8,71,43.7,71,43.7c0,0,2.3-5.5,3-7.3C74.1,36.1,73.9,35.9,73.7,36z"/>
	<path d="M73.3,38.2c0-0.1,0.1-0.1,0.1-0.2l0.9-2.3l-2.4,0.9l0,0c-0.1,0-0.2,0.1-0.2,0.1c-0.5,0.4-0.6,1.1-0.2,1.5s1.1,0.6,1.5,0.2
		c0.1-0.1,0.1-0.1,0.2-0.2l0,0L73.3,38.2z"/>
	<path class="st24" d="M73,84.7l-14.3-9.1c-0.1-0.1-8.7-13-8.7-13c-0.3-0.5,0.1-1.1,0.6-1.1l0.8,0c0.2,0,0.4,0.1,0.6,0.3
		c0,0,7.4,9.6,7.5,9.6l18.1,8c0.1,0,0.2,0.1,0.3,0.2l4.2,5.5c0.4,0.5-0.1,1.2-0.7,1.1l-8-1.5C73.2,84.8,73.1,84.7,73,84.7z"/>
	<polygon class="st24" points="73.4,36.9 68.9,42.4 50.5,62.6 51.4,62.6 71,43.7 73.8,37.4 	"/>
</g>
<ellipse transform="matrix(0.866 -0.5 0.5 0.866 -19.6018 29.998)" class="st6" cx="46.2" cy="51.6" rx="2.8" ry="3.2"/>
<path class="st14" d="M45.2,45.9c0,0,1.5,2.1,2.3,3.2c0.8,1.2,1.8,2.7,0.6,3.4c-1.2,0.7-2.4-0.9-2-1.5c0.4-0.6,1.2-0.9,0.4-2.1
	C45.7,47.8,45.2,45.9,45.2,45.9z"/>
<path class="st20" d="M52.6,32.6c0,0-3.4,1-4.5,2.1c-1.2,1.1-1.4,2.2-1.8,2.8c-0.5,0.6,0,2.9,0,2.9l1.3,0c0,0,2.4-2.9,4.1-3
	c1.7-0.2,1.9-0.9,1.9-0.9l-1.3-2.1L52.6,32.6z"/>
</svg>
